<mxfile host="Electron" agent="Mozilla/5.0 (Windows NT 10.0; Win64; x64) AppleWebKit/537.36 (KHTML, like Gecko) draw.io/28.0.6 Chrome/138.0.7204.100 Electron/37.2.3 Safari/537.36" version="28.0.6">
  <diagram name="Page-1" id="Np6W4AIxkQRD9Ge9u8pj">
    <mxGraphModel dx="1465" dy="701" grid="1" gridSize="10" guides="1" tooltips="1" connect="1" arrows="1" fold="1" page="1" pageScale="1" pageWidth="850" pageHeight="1100" math="0" shadow="0">
      <root>
        <mxCell id="0" />
        <mxCell id="1" parent="0" />
        <mxCell id="TeoRIYG-eI9M2ClnVOOX-1" value="" style="shape=image;verticalLabelPosition=bottom;labelBackgroundColor=default;verticalAlign=top;aspect=fixed;imageAspect=0;image=data:image/png,iVBORw0KGgoAAAANSUhEUgAAAeQAAAKUCAYAAADVZEulAAAABGdBTUEAALGPC/xhBQAAAAlwSFlzAAAWJQAAFiUBSVIk8AAAz7lJREFUeF7svdlXFFm37v39M/vUfmMnIEUCwgbpZCONSaNA2Ryxxwakse/QEmwSRSm1SF8VUUTREhAUUTChKBpBUBQVTLoElXeMPc7FGePcnHP5fGtFZCbZREKmIgTlvPiNkayYa64ZM5L1xGoi8v/7D49FIAiCIAhifiFBJgiCIAgFQIJMEARBEAqABJkgCIIgFAAJMkEQBEEoABJkgiAIglAAJMgEQRAEoQBIkAmCIAhCAZAgEwRBEIQCIEEmCIIgCAVAgkwQBEEQCoAEmSAIgiAUAAkyQRAEQSgAxQtyVs5etLZ1o+/toANtHT3YuGWbbD2CIAiCWEgoWpBjNUl4/eYDqmoeQ3u22IHax43oefUO6zZslq1PEARBEAsFRQvywcPHxZFwHBPmiMgYB2KXr8Cj+ka87O3H6jXrZX0QBEEQxEJA0YKcX1AoCrKcGJtZHr8SDU+bbaay7el9/R7VD+uRmJQi2w5BEARBzDcLXpA5CUxo5aa0zZwtuoSm5jZ0vHiN4JBw2bYIgiAIYj75KkGOWZ4AX/9A2WPWcBtuK3fMFVwVZFdI/WWd6Cs394BsWwRBEAQxn3yVIN+5V4Oy8vtYHBgse5zDj3Ebbit33BVmU5A53Bf3KdeWPerYDOSdu47bNQ2orixHcV46Iry95G3jMnGM2ZZXP0FV+TVoj2xDlIxtxC4dblcUYq1vADQ7T+LCzTpU3b2Kgt2rEaTygqAKQvzOEzh3vQoPa6twrTAHMb7ybcphHXPVnZsoOrQBS7ycxOzC+SUevs3iveeUI6mux0YQBEFMz1cJcuzyJNTUPXMqymYx5jbc1v64qzgT5IQVqTh89IQI/2x/3BmuCLKg8kF0TgU6hiZhHDGgU6/Hs/YPMExMYrj7FjYFTYkQt43dU4lObjtmQFdLM/S9wxhltoNt5ciI8rHxnXChF8aJJhQdf4S3H99A/6wZ7f0TrGwMTWfWYdWZZnwQy/XMzygrn4ThWT4imFhb+7FHjDlbinls6APan+vxvNuAYVZ/oP0K1i+2jdnV81uve4VXfe/sGMDAGKs7YcTNrSTIBEEQs8VXryE7E+XZEmOOnCCv35iOjq7XYjmHf+Zl1jbOcEmQowrQNMoEtUWHjaHeUhkTsYjcKvQz0XpfnoFFJoFURZ/CcyZOg806pAWb6qu8EZZeijYmeIb6PIRaiakkyEz4/rqKtcEm374rodUbxfLR9mtYG2Ty4xmGjDvvWfkH/L56euETIvPRyGJ+W1+I1EBTmUqNyJ3l6DROovdGOnxNcbhzfnJ4JxfjT1a/v/oAwjymj4sgCIJwnW/a1GUvyrMpxhw5Qa6pa0CTvg2RUTEi/DMvs7ZxxkyCzIVp8y0DjMYOFMTaHwvFhnwdLp3dhaVMsLjt1vIhZtvJbG2FSVAtQuKFHiamg9CtnSqXBHkMt7apbeyDDjdi/NO/UHdoiU25sL4M75lI1h10vjQgxnyTxWyoQ3awfRy+2FQ2wGJ8hGwfKWZXz8/6mMUmcBvKXn3BWG85NgaQGBMEQcwm3yTIHGtRnk0x5sgJ8ouXb3D23EWLDf/My6xtnDGzIGugbZ+EsVnrwjRxPAo7JNtwGVth+Xl0MDFtOhFlKZMEmQn4Mlv7Rbl1rHyCCbVtuZB4CV3Mx/OCaJtyaywxPy9GanwSNHakFuqZ79coSuSC7Pr52SN4RuNAHRPz0U4UJvvJ2hAEQRBfzzcLMscsyrMpxpy5HyHvxO2RSYzey4XHjII8va3gewC1TEz7S7dYyiRBbseJSDlBHsfN9K8RZCkOPsJ2hnHiCyqzfNw6P2v4SHvFuQ4MT4ywUXycW3UJgiAI15gVQeZwIZ5NMebICfL3XEMWVGm40s9GkPV58J9RkNdBx23rDkMtJ8ih+WhkYvriwtTLSL6PIJtibrqEtDVpWOWEuGD3zs+agK3l6DVO4vXdLASTGBMEQXwXZk2Qvwdygsz5Xrus+Trq0WdMsN7dxoZFjsLjHRCOJSFB4qYnQRWCIw3Mtr8c62QeLVLvqMQHJqZVexZbyr6PIIcir5HF0avDihlvIlw/P3OZR+Qh1A6wUfWLf+IXNx7BIgiCINxjQQry1zKTIHOW7KuHYeITnp1MgJeVMAlhB1DDhMnYUohIU3no/ifM1ognv2rgaW3rkwRt8ycYB2qQEThVPhuCLHgGIW79ZmgCpx6pCjv0lMUxipr9UVBZx+EZjX2Vf6H+7kmkqqVyd85P8E7B2T/HYRz6Eyc0to9wEQRBELOLogV5ph+XcAfug/viPuXaMiN4JqFAP8YE0oCmG1rs2ZGBrF91uN8+AuP4e1RkTL16U/BMlGzHDXh6TYt9O3dg58FClLUMsfqjeHw41sb3bAjyksNPxeecRxvzLY9UWeIwfmRxnMHunduwba8Wl2p6McJs397LRaDF1rXzE1QBWH/tDcZY/cGWShRduOTAr5siLXERBEEQ34aiBXmmn190B+6D++I+5dqyRlDHI+dGK94MfbFsjBp9q0dJdiK8rUaVFtvSVrwdlmz5BipDnx6/Z8TajEA5syHI6k2l6B39hN4bmTZr14KPBllX9Hg19HlqM9fQGzzS5SLabnralfMTVHHQtk2/Wazr4i82fgmCIIivR9GCzMnK2YvWtm5xdPstcB/cl1wbzhC8AhCqSYEmMgTeM7wEg9uGaZIRFxrw3Xche6r9babIrRE8/REcm4IkTTQCfaQXfzjDnfMjCIIgvi+KF2SCIAiC+BEgQSYIgiAIBUCCTBAEQRAKgASZIAiCIBQACTJBEARBKAASZIIgCIJQACTIBEEQBKEASJAJgiAIQgGQIBMEQRCEAiBBJgiCIAgFQIJMEARBEAqABJkgCIIgFAAJMkEQBEEoABJkgiAIglAAJMgEQRAEoQBIkAmCIAhCAZAgEwRBEIQCIEEmCIIgCAVAgixDVs5etLZ1o+/toANtHT3YuGWbbD2CIAiC+FpIkO2I1STh9ZsPqKp5DO3ZYgdqHzei59U7rNuwWbY+QRAEQXwNJMh2HDx8XBwJxzFhjoiMcSB2+Qo8qm/Ey95+rF6zXtbHQkbwjYQmMRlRgd6yx2fCOzQBCYkaBHt5yR4nCIIg5CFBtiO/oFAUZDkxNrM8fiUanjbbTGXb0/v6Paof1iMxKUW2HaUirCtF/8Qkag8EyR6fiYQLvTBOtONEJAkyQRCEO5Ag2+GKIHMSmNDKTWmbOVt0CU3Nbeh48RrBIeGybSkREmSCIIj5YUEIcszyBPj6B8oes4bbcFu5Y67iqiC7Quov60RfubkHZNtSIiTIBEEQ88OCEOQ792pQVn4fiwODZY9z+DFuw23ljrvKbAoyh/viPuXa4kTs0uF2RSHW+gZAs/MkLtysQ9XdqyjYvRpBKi8IqiDE7zyBc9er8LC2CtcKcxDjKy926rhMHDt3HeXVT1BVfg3aI9sQ5S1vK6gWIXjVAZy5XIEHj+pReeMicpKWQDWNIKtjM5DH/N+uaUDVnZsoOrQBS+zWikmQCYIgvo4FIcixy5NQU/fMqSibxZjbcFv74+7gTJATVqTi8NETIvyz/XFnzCTIkoA1oej4I7z9+Ab6Z81o759gZWNoOrMOq84044NYroe+d5SVT8LwLB8RTKzNPgSVD2L3VKJzaBLGMQO6WpqZ7TBGme1gWzkyonxs2hRUAUjOb0CfkdkPD6L9uR4tr0YwOtwBbf5tB0Hm/qOzK9DB/I8NfRDtn3cbMMzsBtqvYP3iqVhIkAmCIL6OBbOG7EyUZ1OMOXKCvH5jOjq6XovlHP6Zl1nbOMM1QZ7E8F9XsTZY2tks+K6EVm8Uy0fbr2FtkGQreIYh4857Vv4Bv6+eEjxV9Ck8H2Pi26xDWrDJVuWNsPRStDERNdTnIdRKwD0Ti9HOxPjdsyKkBkjlgsoPcfuq0Gv8IrZrI8iR+WgcncTb+kKkBpr9qxG5sxydzE/vjXT4mvyTIBMEQXwdC2pTl70oz7YYc+QEuaauAU36NkRGxYjwz7zM2sYZrgnyGG5tU9uUBx1uxPinf6Hu0BKbcmF9Gd4zwaw7KN2U8NHr1vIhGI2dKIi1FUE+LZ14oYf5H4RurbnMFxmVY8z+Txxdam8fhOyqUbFdsyBz/5tvGmA01CE72N7eF5vKBpivR8j2IUEmCIL4FhaUIHOsRXm2xZgjJ8gvXr7B2XMXLTb8My+ztnGGa4LMxHSZrYAtyq1j5RNMqO1EMPESupggPy+Ilv5WxaOwYxLGZi3CrUbBFvvl59HB7JtORJnsE1H0gtk/P4UQGXv1njo7QdZA287ti5EanwSNHamFehbnaxQlSr5IkAmCIL6OBSfIHLMoz7YYc+ZnhOwoYJIgj+Nmum25oyDvxO2RSYzey4WHnCD7HkAts+8v3WKyz0TFKLfPgUrO3jQCnxJkyT8XaWcYJ76gMktapyZBJgiC+DoWpCBzuBDPthhz5AT5+68hf4sgr4Oun41g6w5DLSewofloZPYvLkgvKBFUabjC7R8ftaz7WuOR8Ye4GWxKkE32TZeQtiYNq5wQZ1q7JkEmCIL4OhasIH8v5ASZ8313WX+LIIfgSAMTzP5yrJN5XaV6RyU+MPuqPYtN9mE41ijZp8nYJ5zvEUe9U4Icijxu36vDChkBt4cEmSAI4usgQbbDmSB/Ld9bkDmh+5/AMGHEk1818LQSTcEnCdrmTzAO1CAjcKo8Ik+PYWZffzzOxl4VnIXKd9L0tFmQOWGHnjL/o6jZH2UzzS14RmNf5V+ov3sSqWqpnASZIAji6yBBtmOmH5dwB+6D++I+5drizIYgC56JKNCPwThuwNNrWuzbuQM7DxairGWI+RjF48Oxtj68VqP4BRPq8UE8uXIaOdt3IPPQRVS9NKKjscXxOWSzf+NH5v8Mdu/chm17tbhU04sRZvv2Xi4CTUJNgkwQBPF1kCDbMdPPL7oD98F9cZ9ybXFmQ5DFcnU8ckpb8Xb4i2WjlaFPj98zYuElM9UsBK5BQdUrDBqlEbFxfBitZXux7JcS9NoJsmjvo0HWFT1eDX0W7cU6Q2/wSJeL6EVT/kmQCYIgvg4SZBmycvaita1bHN1+C9wH9yXXxvdC8ApAmCYZcaEBsruu7fHwDUdc0kpEBvnJ7rq2R/D0R3BsCpI00Qj0+bqfaCQIgiAcIUEmCIIgCAVAgkwQBEEQCoAEmSAIgiAUAAkyQRAEQSgAEmSCIAiCUAAkyARBEAShAEiQCYIgCEIBkCATBEEQhAIgQSYIgiAIBUCCTBAEQRAKgASZIAiCIBQACTJBEARBKAASZIIgCIJQACTIBEEQBKEASJAJgiAIQgGQIBMEQRCEAiBBVjjeQfEI1OzHklStCP/My+RsCYIgiIULCbICUS3yE8VXkzeClYX/TxZ+jNtwWzkfBEEQxMKCBFlhqMPWQHPMKIrust098F9ZDFXIVvzklyzCP/MyfkwUZmbL68j5IgiCIBYOJMgKIiA2B0mn/w8b/RrhvWw//u3n5dPCbbgtr8PryvkkCIIgFgYkyAqBj3K5sEbveY1/LP5FVoDl4La8Dq/r6khZ8I9CQmKyLZpYBPp4y9rPFYJvJDQslqjA+Y2DIAhiPiBBVgB8HZhPPfPRrpwY/w+feHiEZ8BraRb+3T/V4Tivw+tyH66sKQvpdzE0MYnxT/+ywWg0or/zMYq2x2KRyku27vdEWFeKfhZX7YEg2eOziaDyQXAsuxGJi4D3PJwrQRCEPSTICoBvzuLrwXLT1IGrriAh/39ZNnOt0P5fLM1owX8EbbCx43X5ce5Lrg1rzILcUZ6HrKxcib15yD9fjid9n2CcGEPdwSjZut+TuRXkaJxsmYSx6xI0JMgEQSgAEmQFoDk6jGW5L20ElhO6uVoU2bD0J/D6rz1QLdkMv8RCNhKeYHyGEJRmY899cF9ybVhjFuSGvHDHY36bcf0VE6qBe9iqnluhIkEmCOJHhgR5nvk5OFEUXf/k32zEddF/7ZZGvOvv2pRz/hGwBvH5/42wLQ9tyrkPXof7lGvLzHSCzInVvmCj5Dc4v0ISqohdOtyuKMRa3xCsyD0L3f1GNN0+gDArIVPHZeLYuesor36CqvJr0B7ZhihveaETVIsQvOoAzlyuwINH9ai8cRE5SUugkhFkqe2L2BJs60tQhWN78T3cvpiFEDtBVcdmII/FcrumAdWV5SjOS0eEVSzqNC3zWYfWASbIhm5UVzA/FcXYFCgfL0EQxFxAgjzPBCzfK4qoKiTdRlzDtj5C0qn/jZ98V9qUTwf3wX1xn3JtmZlJkAMPPROnrW9slgQq4UIv+1uPkiI9Bo1j6OvqRGvVcUQwIeRrsbF7KtE5xMRtzICulmboe4cxyvwPtpUjI8rHxregCkByfgP6jMx+eBDtz/VoeTWC0eEOaPNvOwiy1HY7TkTaC3IctG3MR0cxYkyCzGOJzqlAB49lxIBOvR7P2j/AwHwOd9/CpiDJTp2uQ8PTVrw0MLuhfuif6tnfZciwE32CIIi5hAR5njGvH//kl2IjrtH73iBm/3ubspngPsRR9QzryNNOWTNRW1/6nolgJwqWTQky3/Q12n0XmTGLbexV0afwfIyJb7MOacFmH94ISy9FGxNGQ30eQq1GsJ6JxWhnYvzuWRFSA8xC6oe4fVXoNX5h7X6DIEcVoGmUxdKiw8ZQaac2P5+I3CpR6N+XZ1g2q9GUNUEQSoMEeZ5RkiALKjWWbivFX0xgh/VnEO0hCZUkiqO4tU1tZ++DreVDMBqZeMfaC+YiJF7oYfUGoVtrLvNFRuUYs/8TR5fa2wchu2pUFP6vEWQey+ZbBua7g8UyZSfZhmJDvg6Xzu7CUhJkgiAUCgnyPDOfU9bvOp6h+uFjkZp6PVp7DRhh5aN9DTicMDXVLIkiE7ooe1GMR2EHE7VmLcJlRE1Yfh4dzF/TCWnHtqBKRNELZv/8lMO6L0e9p+4bBFkDbbsUC59Kt7aVgwSZIAilQYI8z8znpi5Dfy/aO7ol2lpR90cFSrR7EO9vK1DORXEnbo8wAb+XCw85QfY9gFrWTn/pFpN9JipGuX0OVHL268vwntl/nSBPH4s9JMgEQSgNEmQFoKTHnuRwLorroOtnolZ3GGo5gQ3NRyNr58WFFJN9Gq5w+8dH4Stj75Hxh7gZzDVBNo3OLYJs8l2fB38SZIIgFiAkyArAvI481y8G+XZBDsGRBiZq/eVY5+UoauodlfjA2qnaI20EE1RhONYo2afJ2Cec73GYso461cba7sdvKXZte2XizrC1IIfi6DP297vb2LDI0bd3QDiWhAQ5burqJkEmCEIZkCArgPl6dea3CjIndP8TGCaMePKrBp5Wwib4JEHb/AnGgRpkWD3fG5GnxzCzrz8eZ2OvCs5C5TvpdZ7WguzJRs18XbtLt97yiku++Sz+dKv4OJNZkHn5kn31rOwTnp1MgJd1LGEHUMOfOW4pRKTFh+nm4AO7OTBtXiMIgphPSJAVwpz+uMQsCrLgmYgC/RiM4wY8vabFvp07sPNgIcpahlidUTw+HGtr77UaxS+YUI8P4smV08jZvgOZhy6i6qURHY0tDs8hC+qNuNrHhHNiDO1V11Co/Q3/rO1Ff/N9POi2FWTBM0mKZcKAphta7NmRgaxfdbjfPsLae4+KDNvzXXnxFbM1orP6GrRndiNBZtROEAQxV5AgK4i5+vnF2RRkjqCOR05pK94OfxFHuMaJLzD06fF7RqzNSNViH7gGBVWvMGiURsTG8WG0lu3Fsl9K0GsnyBy/FXmoaJdeNmJkI+C+pqvYGrrc4Tlk0TeP5UYr3gxJsXBG3+pRkp3o8CMSgjoFeX/04KPo13FanCAIYi4hQVYYfJTLp575evCy3T3wX1kMVchW/OSXLMI/8zJ+jNtwW1dHxt8bwSsAYZpkxIUGuLTT2cM3HHFJKxEZ5Ce769oa/lyzV+BShAT4zmjL4bGEalKgiQyB9wxT0p5+EQgPC5a9eSAIgpgrSJAVCF8H5puzNHkjls1c9vBj3MaVNWOCIAhC+ZAgKxzvoHgEavaL4svhn3mZnC1BEASxcCFBJgiCIAgFQIJMEARBEAqABJkgCIIgFAAJMkEQBEEoABJkgiAIglAAJMgEQRAEoQBIkAmCIAhCAZAgEwRBEIQCIEEmCIIgCAVAgkwQBEEQCoAEmSAIgiAUAAkyQRAEQSgAEmSCIAiCUAAkyARBEAShAEiQFQ79/CJBEMSPAQmyAlEt8hPFV5M3gpWF/08WfozbcFs5HwRBEMTCggRZYajD1kBzzCiK7rLdPfBfWQxVyFb85Jcswj/zMn5MFGZmy+vI+SIIgiAWDiTICiIgNgdJp/8PG/0a4b1sP/7t5+XTwm24La/D68r5JAiCIBYGJMgKgY9yubBG73mNfyz+RVaA5eC2vA6v6+pIWfCPQkJisi2aWAT6eMvazxWCbyQ0LJaowHmOQy4/NqxAuJ+XbN3Zxjs0gbWnQbDX3LRHEMT8QYKsAPg6MJ965qNdOTH+Hz7x8AjPgNfSLPy7f6rDcV6H1+U+XFlTFtLvYmhiEuOf/mWD0WhEf+djFG2PxSLV3AuAsK4U/Syu2gNBssdnE0Hlg+BYJq5xEfC2O1dn+TFjnBjG1Y1zk5+EC72svXaciCRBJoi/OyTICoBvzuLrwXLT1IGrriAh/39ZNnOt0P5fLM1owX8EbbCx43X5ce5Lrg1rzILTUZ6HrKxcib15yD9fjid9n5gAjKHuYJRs3e/J3ApyNE62TMLYdQkaJ4Jskx8bsrAyhASZIIjZhQRZAWiODmNZ7ksbgeWEbq4WRTYs/Qm8/msPVEs2wy+xkI2EJxifIQSl2dhzH9yXXBvWmAWnIS/c8ZjfZlx/xYRq4B62qudWBJQmyHL5mWtIkAnix4EEeZ75OThRFF3/5N9sxHXRf+2WRrzr79qUc/4RsAbx+f+NsC0Pbcq5D16H+5Rry8xMghOrfcFE4A3Or5BEIGKXDrcrCrHWNwQrcs9Cd78RTbcPIMxKyNRxmTh27jrKq5+gqvwatEe2IcpbXkQE1SIErzqAM5cr8OBRPSpvXERO0hKoZARZavsitgTbiaYqHNuL7+H2xSyE2AmqOjYDeSyW2zUNqK4sR3FeOiKsYlGnaZnPOrQOMEE2dKO6gvmpKMamQMnGHUEWFqXgcCmrr9uHZR62cfiuPYObzHfRjqWWsqlc+iAsLR+Xy2tRW1uFqxdOY4cmwKY+ZzpBdjXnLl0/q5xV3bmJokMbsITWrQliTiFBnmcClu8VRVQVkm4jrmFbHyHp1P/GT74rbcqng/vgvrhPubbMzCQ4gYeeidPWNzZLHbIkCnqUFOkxaBxDX1cnWquOI4J16HwtNnZPJTqHmLiNGdDV0gx97zBGmf/BtnJkRPnY+BZUAUjOb0CfkdkPD6L9uR4tr0YwOtwBbf5tB0F2JkiCKg7aNuajoxgxJmHhsUTnVKCDxzJiQKdej2ftH2BgPoe7b2FTkGSnTteh4WkrXhqY3VA/9E/17O8yZJhE3y1BZjcXMQV/Ypjlq2pPxFS5VyqKX3yB8c1dbPafil06n0acyq1Ar3Ec/d2teNrchw88H0M9KMuKhYeVUMqdv7s5n+n6RWdLORsb+iBej+fdBnY+kxhov4L1i6faJQji+0KCPM+Y149/8kuxEdfofW8Qs/+9TdlMcB/iqHqGdeTpBId30OtL37MOvBMFy6TOmHfofDPTaPddZMYstrFXRZ/C8zEmBM06pAWbfXgjLL0UbayTN9TnIdRKYDwTi9HOxOfdsyKkBkjlgsoPcfuqmEAxAWNxfbUgRxWgaZTF0qLDxlBppzY/n4jcKlHo35dnWDarzeaUteCVBG3rZxj772KTHxe5RYjO/xMjE4Mo3xFiYyudz2eMGjpRsmWpRXw9I3bhesc4G7HXI8dqNkDu/N3N+XTXT4jMRyPL2dv6QqQGmn2pEbmzHJ3sOvXeSIevXX4Igvg+kCDPM0oSZN4RL91Wir9YZz+sP4No0xSsJAqjuLVNbWfvg63lQzAamXjH2nbaXJQSL/SweoPQrTWX+SKjcozZ/4mjS+3tg5BdNSoKx9cIMo9l8y0D893BYpmyk2xDsSFfh0tnd2GpSVxcEWTD+7foevnakbp8RNnV8Vp5ER1MwDovroZnyH7UsNF3/70cBNrZmcWx+/JaeNod81x9Fb2s3Y7zyTb21ufvbs45012/zTdZzgx1yHZYEvDFprIB1s4jZPvYHiMI4vtAgjzPzOeU9buOZ6h++Fikpl6P1l4DG9VNYrSvAYcTpqY9pQ6dCV2Ufacdj8IOJmrNWoTbiYt4fPl5dDB/TSekHduCKhFFL5j981MO674c9Z66bxBkDbTtUix8KtbaVg5XBLm/9RHuVFY5cjnbZgQq1mEC9svvr2Ac60DV4w8wDjxC1hLHOKTz4YLpeExQrYOufxJj1Qcsj2I5CrJ7Oec4v36mnD0vRmp8EjR2pBbqWb3XKEp0bIcgiNmHBHmemc9NXYb+XrR3dEu0taLujwqUaPcg3mrNk+NcFHfi9ggT8Hu5NuueluO+B1DLha10i8k+ExWj3D4HKjn79WV4z+y/TpCnj8We77HLWvDdhYpB5nPiC54el39szCyO+XbnwxFUUSjgMbFzijXF5CjI7uWcM9P14zdBzuDnUplluyZNEMT3gQRZASjpsSc5nHfo0ojOWHcYajlxCM1HI2vnxYUUk30arnD7x0dl1yU9Mv4QNya5JsimkaJFkE2+6/PgL+Pbnu8hyAE776OfCdiYkd3sNJ1y2HXNkc6nD0VJjscE1Upc6GYxNRYg2BSToyC7l3OO8xyactZ0CWlr0rDKCXGmdWqCIL4vJMgKwLyOPNcvBvl2QQ7BkQbWofeXY53MIzLqHZX4wNqp2iNtJBJUYTjWKNmnydgnnO8RR2XWghx1qo213Y/fUuza9srEnWHmyyLIoTj6jP397jY2LHL07R0QjiUhQY6burpnR5AF/224+WYSY106pB+ow8CEEU/yYh1mAqRcfkbtftvNXhwh+CjqmZgP3tpuKXMUZPdyznF+/UKRx69Hrw4rZMSdIIi5hQRZAczXqzO/VZA5ofufwMDF51eNzSYlwScJ2uZPMA7UIMP0fC8nIk+PYWZffzzOxl4VnIXKd9L0qbUge7JRM1/X7tKtt6yr8s1n8adbxceZzILMy5fsq2dln/DsZAK8rGMJO4Aa/sxxSyEiLT5MNwcf2M2B3UjW3fwIqsVIu/ZWvHHQpS1mfy/DkSdjMBoaccBu8xrPpTgV3MFE0OrFK/xxsNU6aUPWjc1TzyPL5d7dnE93/cIOPWW+RlGzP8rm5kHwjMa+yr9Qf/ckUuf4BTEE8aNCgqwQ5vTHJWZRkAXPRBTomfiMG/D0mhb7du7AzoOFKGsZYnVG8fhwrK2912oUv2CiMT6IJ1dOI2f7DmQeuoiql0Z0NLY4PIcsqDfiah8TzokxtFddQ6H2N/yzthf9zffxgE/vWgmy4JkkxTJhQNMNLfbsyEDWrzrcbx9h7b1HRYbt+a68+IrZGtFZfQ3aM7uRYBpxmvPT+/gaii5ckmV38tSNj/fqK+gan8Sb8kz4mWLxiD2D56OTGKg77PAIEhdufcsgBporULB3F7ZkHIW24oV4gzHw+KjNCzvkcu9uzl26fsaPzNcZ7N65Ddv2anGpple8EXp7L9dhpzhBEN8HEmQFMVc/vzibgswR1PHIKW3F2+Evlo1Ahj49fs+ItRmpWuwD16Cg6hUGjdKI2Dg+jNayvVj2S4n42I+1IHP8VuShol168YWRjYD7mq5ia+hyh+eQRd88lhuteDMkxcIZfatHSXai449IqFOQ90cPPop+p6bFzfkx15fDHCN/AciFjs9sVFqLXVaPDvFHihLPdbKYh1G1e+pNXZZcJq5Gfs0bSzvGUQP0pXsRbfeIkbPcu5PzGa+fjwZZV/R4NfTZcn7GoTd4pMtFtMz0P0EQ3wcSZIXBR7l86pmvBy/b3QP/lcVQhWzFT37JIvwzL+PHuA23dXVk/L0RvAIQpklGXGiASzudPXzDEZe0EpFBfrK7rq3hz9h6BS5FSIDvjLYcHkuoJgWayBB4y2yussbTLwLhYcGyNw+zjbU4ctH2DdUgITEWi79S+NzN+XQInv4Ijk1BkiZ63n+KkyB+REiQFQhfB+abszR5I5bNXPbwY9zGlTVjQjnMNFolCOLHhQRZ4XgHxSNQs18UXw7/zMvkbAnlQ4JMEIQzSJAJYg4hQSYIwhkkyARBEAShAEiQCYIgCEIBkCATBEEQhAIgQSYIgiAIBUCCTBAEQRAKgASZIAiCIBQACTJBEARBKAASZIIgCIJQACTIBEEQBKEASJAJgiAIQgGQIBMEQRCEAiBBJgiCIAgFQIJMEARBEAqABJkgCIIgFAAJMkEQBEEoABJkGbJy9qK1rRt9bwcdaOvowcYt22TrEQRBEMTXQoJsR6wmCa/ffEBVzWNozxY7UPu4ET2v3mHdhs2y9QmCIAjiayBBtuPg4ePiSDiOCXNEZIwDsctX4FF9I1729mP1mvWyPn5kAlPzUHT+CFYEeMkeJwiCIOQhQbYjv6BQFGQ5MTazPH4lGp4220xl29P7+j2qH9YjMSlFtp2/I4JqCQ7XT8I48QXVewOtyn0QHJuMhLgIeKtIqAmCIOQgQbbDFUHmJDChlZvSNnO26BKamtvQ8eI1gkPCZdv6O7I4+SC02v1I8J8SXkEVjZMtTKi7LkFDgkwQBCHLghDkmOUJ8PWfGnE5g9twW7ljruKqILtC6i/rRF+5uQdk2/pRIEEmCIKYmQUhyHfu1aCs/D4WBwbLHufwY9yG28odd5XZFGQO98V9yrXFidilw+2KQqz1DcGK3LPQ3W9E0+0DCLMSLnVsBvLOXcftmgZU3bmJokMbsMTLVtim/PggLC0fl8trUVtbhasXTmOHJsDG1hp1XCaOMd/l1U9QVX4N2iPbEOUtL5qCzzJsOFaCG5WP8ehxHSquFmFXYgg8rGKV4riILcFSmTpNy/6uQ+sAE2RDN6or7rG/i7Ep0LYNV+Nwlq/QmD24wnyXZMc51BFUaqw6UcnqncU6P/lzIwiCmG8WhCDHLk9CTd0zp6JsFmNuw23tj7uDM0FOWJGKw0dPiPDP9sedMZMgJ1zohXFCj5IiPQaNY+jr6kRr1XFEMJHja6/R2RXoGJrE2NAHtD/X43m3AcMTkxhov4L1i6fERfLTiFO5Feg1jqO/uxVPm/vwwciEcKgHZVmxNsLJfcfuqUQn820cM6CrpRn63mGMMt+DbeXIiPKx2Ir2/hvwe8cEa+Mz3nfrUV39DG3vPsNo7EPZ9qkpeSmOdpyIlNpSp+vQ8LQVLw08jn7on+rZ32XIMAm2u3E4y1e450Zc62c+OooRazcKF3wyUcHaH2s8iVC7YwRBEEphwawhOxPl2RRjjpwgr9+Yjo6u12I5h3/mZdY2znBFkMc//Quj3XeRGbPY5pgQmY/G0Um8rS9EaqCpjI32IneWo5MJbe+NdPiaBEYSqs8YNXSiZMtSi/h6RuzC9Y5xNjqtR45JBDmq6FN4PsZEr1mHtGCzb2+EpZeijYmjoT7PRryWnW5n/t/h5o4wi29h8SZc7fkMQ7MWMTZxTAmyaDfNlLW7cTjLl6BahF90/aztVziXaNuGOuMBPrLc1B0MtSknCIJQEgtqU5e9KM+2GHPkBLmmrgFN+jZERsWI8M+8zNrGGa4IsnFiFLe2qW3K+chx800DE9I6ZFsJqXTMF5vKBtjo9BGyfaRjZqHqvrwWnnai57n6KnrZiLPjfLKpvg+2lg+x+p0oiLX3vQiJF3pYTIPQrZ0q31Q2zMo6kG8ltJxF/kE2O6fdEeSvicNZvjhC0iV0sfPsKp7a2S6oFmPX/TEYR1gerWYUCIIglMaCEmSOtSjPthhz5AT5xcs3OHvuosWGf+Zl1jbOcE2QO1AQZS9IGmjbmYg9L0ZqfBI0dqQW6lm91ygyjQYlP1y8HEVHUK2Drn8SY9UHRPEUVPEo7GC+2cg23E68Rfvl59HBhK3pRJSlLCj7IQZZ2fuWcvy6az2iA22nks24J8jux+EsXxxLznp1WGHyJ/jl4sEwG4FXZsNHpg2CIAilsOAEmWMW5dkWY878jJBtBYwjqHbi9sikOOp1Bn/etzJLEkazUNmPYCVfUSjggmhaXzX7Hr2Xa7OubLH3PYBaJoT9pVumylShWKutQ5fhi9T2uBGvW+qgO74JIVYbzNwTZPfjcJYvM5EFrez4O1xMkf72z63D8IQBZVscR9QEQRBKYkEKMocL8WyLMUdOkL/3GrK8IKfhCt+k1HQJaWvSsMoJcaZ1V8lPH4qSZIRNtRIXupmvxgIEi4IsjZiNdYehlhPC0Hw0MiF8ccHxpSaCOhIr0w/gRHEF6nuNrE0mmFX7sMTkxz1Bdj+OmQRZCD2OBr6+rkuDShWEvbUTMPaXYY3drnSCIAilsWAF+XshJ8ic77vLWk6QQ5HXyMTKavp1OiQ/n1G7P8ThmBB8FPVMpAZvbZf+VoXgSAPz3V+OdTJCpd5RiQ9MCKv22G4ys0fwisKxhk828U8ryN32gux+HDMKMvO57xGLqf8GVgcfQh07757Lq5k4y9sTBEEoBRJkO5wJ8tfytYLMCTv0FIaJUdTsj7IRFMEzGvsq/0L93ZNIVUvl3I84ldzBBNxUJtqqArBaJ22OurF56nnk0P1PmG8jnvyqsdkEJvgkQdvMBG2gBhmmZ4W5oGbfaMJf9eeRaCWcfFPW+tIB5rsVxyKm4nAU5DAc4zcXH8qR5jFVznEnDs5Mgszxy37IfH7EH/f0GJ3oxdkE57YEQRBKgQTZjpl+XMIduA/ui/uUa4szncAInoko0I/BaPyIp9fOYPfObdi2V4tLNb0YYSPHt/dyEWgSMclPP/QtgxhorkDB3l3YknEU2ooXTJwmMfD4qM3LRiy+xw3Mtxb7du7AzoOFKGsZYn5G8fhw7JStyhvJxb1M3D6jq6YEx3O2I21TNo783ojXbAT6oT5PfG56Kg7H81l58RUrN6Kz+hq0Z3YjwSTs7sTBcUWQBXUm7hik9Xdj61lEWZ03QRCEUiFBtmOmn190B+6D++I+5drizCQwgo8GWVf0eDX0eWoz19AbPNLlInrRVB2Ln8TVyK95gyEmwqLtqAH60r2INj0eZY2gjkdOaSveDps2ak18gaFPj98zYuFlJ2KCZxR2XH6KnqGpjWb8RuH5rXykuDCCFdQpyPujBx9ZXPzG4beUqePuxOGSIPNHxm4ZRD9Pj0/t0CYIglAyJMgyZOXsRWtbtzi6/Ra4D+5Lrg13ETz9ERybgiRNNAJ9vB2OWwsVFyTfUA0SEmOx2Eq0nSF4BSBMk4y40ADZ3c7WeKhDsTQ+FSsSYhCodoxjJjz9IhAeFuwgtBx34pgOPqJfe+Udu2FoxH67Z7gJgiCUCgny3wRXRo4/CkLwPlQbJvGxai/8vkHYCYIg5hIS5L8JJMhs9J2Sh5KSUlS94OvuPTi3Uv7lJQRBEEqEBPlvAgkyy0FhJwxjY+jvqMf59GXfNO1NEAQx15AgEwRBEIQCIEEmCIIgCAVAgkwQBEEQCoAEmSAIgiAUAAkyQRAEQSgAEmSCIAiCUAAkyARBEAShAEiQCYIgCEIBkCATBEEQhAIgQSYIgiAIBUCCTBAEQRAKgASZIAiCIBQACTJBEARBKAASZIXjHRSPQM1+LEnVivDPvEzOliAIgli4kCArENUiP1F8NXkjWFn4/2Thx7gNt5XzQRAEQSwsSJAVhjpsDTTHjKLoLtvdA/+VxVCFbMVPfski/DMv48dEYWa2vI6cL4IgCGLhQIKsIAJic5B0+v+w0a8R3sv2499+Xj4t3Ibb8jq8rpxPgiAIYmFAgqwQ+CiXC2v0ntf4x+JfZAVYDm7L6/C6ro6UBf8oJCQm26CJCYPa00vW3oy53tKA6e2c4RmowS+bM5GVlYm1yRos8fWWtfuRCUzNQ9H5I1jxlTn+FryDNVixdicyszKwbqUGQT6OMcx1fN6hCew7p0Gw19zngyDmGhJkBcDXgfnUMx/tyonx//CJh0d4BryWZuHf/VMdjvM6vC734cqaspB+F0MTkxj/9C8bxoY/4kVLA64cSIGfyrEDNNe7n+XjcGw6BO9YZFz5E/1G2zaNhh7cK9yFZeofq7MVVD4IjmU3QnER8LbKs6BagsP1kzBOfEH13kCbOt8TIXAVDpf+ibd212e0vxXXDq2CvynG+Ygv4UIva68dJyK/7jviLNcEoURIkBUA35zF14PlpqkDV11BQv7/smzmWqH9v1ia0YL/CNpgY8fr8uPcl1wb1piFtaM8j41Wcxm7kXtIi/NX76Gua4R1gJ/RW1uIVLtR0NcIshC8Dbq2UclnfRm0x/YhffNOZB0+j5v6AYwyf2+rD2HpDKPzvxOCKhonW5iwdV2Cxk4kFicfhFa7Hwn+c5MPwUuDvPphGI0DaPjnSWRsXIukleuwKacQ5a1D7LoNoe6wBh6mOOc6vm8XZOe5JgilQYKsADRHh7Es96WNwHJCN1eLIhuW/gRe/7UHqiWb4ZdYyEbCE4zPEILSbOy5D+5Lrg1rzMLakBfueMxrGbZdbMZ7drznygYssurE3BVkQeWPjaXvWIc6iNr81Vhs1yHyEdd6XRfz+RnPT2psjv2dUZJIqDbeEq91szYRnvbXx3ctdN0szjfXkDpPcZIgEz8SJMjzzM/BiaLo+if/ZiOui/5rtzTiXX/Xppzzj4A1iM//b4RteWhTzn3wOtynXFtmphNk8bgqDHvrxtioqRNnNFPrvNaCrI7dhdPX/kD140co1xXj8MZohw7dI+E82oyT+PjwAIKddIaC1zro+liH2e3YYarjMnHs3HWUVz9BVfk1aI9sQ5S3o5+IXTrcrijEWl9fRG08itO6+6iue4iykpNYH2578+COrRl1bAbyWBy3axpQdecmig5twBIna5rWttWV5SjOS0eEVczqNC1rvw6tA+ycDd2orrjH/i7GpkDJRorvIrYEO/r/HvmIPNnGBO89Lv8ifz5LUnKQnbsV0aZ25OJzN6eCyhtLVh3AmcsVePCoHpVll5C7MgSqqFyUsHwUpC222E4nyDNdl5lybbH7DnkliK+BBHmeCVi+VxRRVUi6jbiGbX2EpFP/Gz/5rrQpnw7ug/viPuXaMjOTIHM8U0rwktm0aqdeQmKu90B7HI8GvuDjmy40NnbileEz6zSH0HRxK4KsRDX6TAcrf4uLqdNv3gpavgHr1iUjxNSZ8nW/2D2V6BxiHemYAV0tzdD3DovT24Nt5ciIsu38pE67CWcPVeH10ADan+vR2DEgxmr8+BR7I6ZicseWxxGdXYEOFsfY0AfR9nm3AcPMdqD9CtYvtrPNkWyNIwZ06vV41v4BBmY73H0Lm4IkW3W6Dg1PW/HSwOyG+qF/qmd/lyHDJHByAvQ987Eoq0r00355DdQujCDl4nMvpwFIOfkUb9iNmnF4ULRt4ecy1ovLBWXoZXVqDwTZ+XbMhyvXZaZcf8+8EsTXQII8z5jXj3/yS7ER1+h9bxCz/71N2UxwH+KoeoZ1ZFcEWfDKxR+s0zSUZ0Jl6qjN9caMg3h8crVl45egTsKhqncYYyOtqxv9LT62lfNRdh2yZEYb06GKPoXnY6xTbNYhLVgq46OqsPRStLHO01Cfh1Ar8ZA6ykmMdt3GtgipExVUvog++Aj9rLy/NN2yBuqOrRCZj8bRSbytL0RqoDkONSJ3lqOT5ab3Rjp8zbZRBWhitoMtOmwMlW5AeIcfkVsl+n1fnmGZ/p9uGlVOgL5nPoRFKTj31wSzH8OL2uvI27YSgdPsaJaLz532PFdcQuc4K3taZNmjwG1j91ah1/iFfYdcEGR3rss0uf6eeSWIr4EEeZ5RrCCrUnGxl3VkzVqEmzs3U73RxpOIsOt4hIDdeMBGIqNPjovT04IqEif0rP4rHVa40UlxEdtaPiROlxfE2rWhWoTECz2sUxyEbu1UudRRjqMya2qqU7JPwW890jmY43XVlsex+aYBRkMdsu2mj3knvKlsgMX4CNk+JttbzNbYwWKespNsQ7EhX4dLZ3dhqSkGdwT5e+dDLF+cgsO3/sJbJk58d/WY4R301TdxOnsVguzE2T6+qTJXcuqHXfeN7Fz0OGI3mhRUgezYiNj+dILsznWRyuRzPRd5JQh3IUGeZ5Q6ZS2o1kL3lnUyT08g0NTJmOs9PxkjY++D7KrPMA6UY63Y+YYir5HVf3sdv7jRSQmqeBR2SJ2b+UbA5vjy8+hgMTSdiLKUSR1lN7QOHWsgDvLHdPpLLTG4aiuoNNC2s7+fFyM1PgkaO1IL9czPaxQlWtm62CG7J8jfNx/WeAavxNZDRfjng1a8GpHEebCjAplLp5Yc7OObKnMlpytxnm8SYzd0S2Ta986tY36mHyG7c10ke2eCPHd5JQhXIUGeZ5S4qYsj+B7Aw/FJvC9Nnyoz1bufLU3X2bPmynvWYTViv2kqctMN/tjME+z2db2TElQ7cZuJwei9XNnpPx5XLYuhv3SLpUxOJERbVQD2PZI6ylUmX67amuMwP5MrB38etzLLZ8aY7XFPkL9vPpzhGbgSO05Vocs4iZGO35Bgspfz7XpOd6GCjcJH78m/VU5Iu4F37FymF2TXr4tk70yQ5yevBDEdJMgKQEmPPZnxZTZ8XazpxDJLmble/eFQG1sz227z6cgq7DRNc0bkt7IO7CNKNzl/WQlfs4ve+iuO5GUiltUTVOug62edW91h2U1GQmg+GlkMLy6kWMrc6ShdF480XOFxNF1C2po0rHJCXDCva7Ktz7O8RGM63BPk75uP6eBTtyt+475eQhsn2cv5dj2nq/E731Fff8zhETiO5y5pg9n0guz6dZHsnQny/OWVIJxBgqwAzOvIc/1iEGeCLHiuwLn2zzB+tF2nM9d7eyPd8ZlVVRKKXrBOqfsy4k3HhPA81A+xUUhLIaI95DsqwTcTFfyxFNN0r6AKwZEG3rmVY53M5iL1jkp8YDFU7Zlax3Ono3RdPExT7r0zr4Fz26PPmO2729iwyNHWOyAcS0KCHDd1yTzq5ShA3y8fgioCOy9V4U55PlY4eTFLxIk/mS8DrqyTjsv5dr29IBzgU7sfa5BhtUNdsvXB2qvvxBHu9ILs+nXhOMv19/6eEcTXQIKsAObr1ZlyguwZsQ1F9e/ZSGUCz36NszlmrmccasLhyKlpaz6SWpIl7SZuZyMK8xQgH/0mnOvC2IQRbTf3IcbuFZmCOhGHHw6wTm4YD3ZHWMpD9z+BgdV58qvGRvgFnyRomz/BOMA6dKtnSd3pKN2xDTv0lMUxipr9UZad5qKtZzT2Vf6F+rsnkWo6pyX76pntJzw7mQAva9uwA6jhNxzspiTSVM6f8z7GReVDOdLsblTk4vte+eDXbd21QWZrQNXeaIepW2HxBuhesBuzsUfI9pOOyfl2J6f+2yrF70l3RS4iTTcv4vdnvQ4tpqno6QSZ4851mS7X3/N7RhBfAwmyQpjTH5cwCWvv42sounCJ8Tsul1ahtqkbb/gzmcZ3eHg2HaF2Iwep3mc0N7bi49tGXD6+B+npuTjy2yP0GCcx9vYuNtu9UlFQr8Sh+6/FZ0Q/9uhx5/plnMzXokhXBf07/vzyJ7TrNtlM9QqeiSjQj8E4bsDTa1rs27kDOw8WoqyFr0mP4vHhWJs23Oko3bG1xGH8yOI4g907t2HbXi0u1fRihJ3P23u5UxvePJMkWyZuTTe02LMjA1m/6nC/fYSdx3tUZNje/Ky8+IrZGtFZfQ3aM7uRYMq1XHzfMx+qsBxUvuHX3AD9ncs4tjcXGVkHcfRcOZ69kR6Hqs+benWmnG+3cspG5TvKepkQTsLQ14n6qhrU6l/jw1g/bpZUzbiGLPpw47pwnOX6e+aVIL4GEmQFMVc/v2gW5KlNMJMYHujHX431qCgtRnai/A8HSPXGcXN7BLZcbrb8GIHRaERvfQk2hclv9uIdVuLhcjT1ccEy1Rn/hP72WhRmJlqeGbWpo45HTmkr3g5/McX4hXXgevyeEWszAuW401G626kKPhpkXdHj1dDnqXwNvcEjXS6i7aanxZhvtLKbGilmzuhbPUqyEx1+2EBQpyDvjx58ZPkwTvTjt5QZ4vtO+eB4L9uBM3c68N50PSX/nzHYVYdzu2yvj5xvt3Oq8kdcVhGuVjagqbUNT6pu4cSGKHiuKxVHzzMJsujDresin2vp2PfLK0G4CwmywuCjXD71zNeDl+3ugf/KYqhCtuInv2QR/pmX8WPchtu6OjKebTwXR2F50gqE+8kLsT38OdHFERpo4pcj2NfFOl4BCNMkIy40QHY37FwhePojODYFSZpoBPpM/+YxHnOoJgWayBB4O1k7N+PpF4HwsGCHzt8Z3zMfKu9ghMemIjU5EeEBapvp4LnAc8c9cQbmfpav7HE53Lku0+VaKd8z4seGBFmB8HVgvjlLkzdi2cxlDz/GbVxZMyYIpSAErMLR0hvYHW17Q8af5d1azh+be4FTMSSIxI8JCbLC8Q6KR6Bmvyi+HP6Zl8nZEoTS8U27Jj7bzKfydSf2IX3jRmzccRDaOy8wMDGJt1X7EUYjVOIHhQSZIIg5g++oDl57Grf178WNflPrv32oLTmAeNNuboL4ESFBJghizuGPxPkERiEmMQWaqDD4yjwLTBA/GiTIBEEQBKEASJAJgiAIQgGQIBMEQRCEAiBBJgiCIAgFQIJMEARBEAqABJkgCIIgFAAJMkEQBEEoABJkgiAIglAAJMgEQRAEoQBIkAmCIAhCAZAgEwRBEIQCIEEmCIIgCAVAgqxwfl7ih/9cEYqQ/xkhwj/zMjlbgiAIYuFCgqxAVIt+FsU38UwyUkvWysKPcRtuK+eDIAiCWFiQICsM34hAJGpTRNGNOarB4rVB8FjqiZ8C/yHCP/MyfkwUZmbL68j5IgiCIBYOJMgKIjB+CZIvrkYCG/16a9T4N7+fpoXbcFteh9eV80kQBEEsDEiQFQIf5XJhjT0Wj38ECbICLAe35XV4XVdHyoJ/FBISk23RxCLQx1vWfq4QfCOhYbFEBc5zHE7yE+zrI2u/EAlMzUPR+SNYEeAle5wgiLmHBFkB8HXgRC3r9Nlo116Mf2ajYDmsbXgdXpf7cGVNWUi/i6GJSYx/+pcNRqMR/Z2PUbQ9FotUc99RC+tK0c/iqj0QJHt8NhFUPgiOZTmPi4C33bk6zc/4BD50P8Wl7ET4zkN+ZgtBtQSH6ydhnPiC6r1TN3HT5YQgiO8PCbIC4Juz+Hqw3DS1eROXPfZ2vC4v577k2rDGLDgd5XnIysqV2JuH/PPleNL3iXXUY6g7GCVb93syt4IcjZMtTJS6LkHjRJBt8rMnD78WluJhj5HlZxyNJzRQLWDRWpx8EFrtfiT4T53DdDkhCOL7Q4KsABJOJyPmyHIHkeWYR8SagiQRuRGyGe6D+5Jrwxqz4DTkhTse89uM669YpzxwD1vVc9spK02QZfPjswoXOz/DOPQQmX5/L9EiQSaI+YUEeZ75OcRfHNnyndNyImsmJi9eRO6YGe6D++I+5doyM53gcGK1L9go8A3Or5A65YhdOtyuKMRa3xCsyD0L3f1GNN0+gDCrTlsdl4lj566jvPoJqsqvQXtkG6K85Tt1QbUIwasO4MzlCjx4VI/KGxeRk7QEKhlBltq+iC3Btr4EVTi2F9/D7YtZCLETD3VsBvJYLLdrGlBdWY7ivHREWMWiTtMyn3VoHWDiY+hGdQXzU1GMTYGSzUz5iTrVxvLzDhdTnLdbdecmig5twBIvW5upXPogLC0fl8trUVtbhasXTmOHJsDG1hq38uuzDBuOleBG5WM8elyHiqtF2JUYAg+rPNnndaacmHE1DmffmdCYPbjCfJdkxznUEVRqrDpRyeqdxbq/2c0OQbgCCfI8E8g6Si6iqkgvWZE144ogcx/cF/cp15aZmQQn8NAzcdr6xmapU0y40Mv+1qOkSI9B4xj6ujrRWnUcEayD5+uOsXsq0TnEOvIxA7pamqHvHcYo8z/YVo6MKNuNUIIqAMn5DegzMvvhQbQ/16Pl1QhGhzugzb/tIMhS2+04wc7N1k8ctG3MR0cxYkxCw2OJzqlAB49lxIBOvR7P2j/AwHwOd9/CpiDJTp2uQ8PTVrw0MLuhfuif6tnfZcgwidNM+Qk++lzMT9kWq3azpXbHhj6I5/S824Bh5mOg/QrWL56KXTqfRpzKrUCvcRz93a142tyHDzwfQz0oy4q1EU638+u/Ab93TLA2PuN9tx7V1c/Q9o6N6I19KNs+dT72eZ0xJ27G4ew7E+65Edf6mQ923WLtbqQEn0xUsPbHGk8i1O4YQfwIkCDPMyFrl4oi+tN/Tr+z2hVB5j64L+5Tri0z007Jso53fel71pl2omCZ1CnyzpVvahrtvovMmMU29qroU3g+xjrlZh3Sgs0+vBGWXoo21nkb6vNsOlfPxGK0M/F596wIqaYdvoLKD3H7qphAfWHtfoMgRxWgaZTF0qLDxlBppzY/n4jcKlHo35dnWDarffWUtSoE2VXDLKYOFESZfEXmo5G1+7a+EKmBZjs1IneWo5Oda++NdMsmMOl8PmPU0ImSLUst4usZsQvXO8bZ6LQeOVazAe7md9npdub/HW7uCLP4FhZvwtWezzA0ay25ksvrdDlxNw5n3xk+O/KLrp+1/QrnEm3bUGc8wEeWm7qDoTblBPGjQII8zyhJkLmILN1Wir9YxzusP4NoD+vOexS3tqnt7H2wtXyIjb6YeMfadq6840280MPqDUK31lzmi4zKMWb/J44utbcPYkI3KnbiXyPIPJbNtwzMNxPK2Ck7yTYUG/J1uHR2F5aaRcoFQW46sxJLQsIlIpYjYXUm8krb8IEdG6w9iCXmdm+ydg11yHaYVvfFprIBFtMjZPtIx8xC1X15LTzt2vVcfRW9zHfHeWkfgLv55Wwqk24W8u3ytcg/yGbntDuC/DVxOPvOcISkS+hi59lVnDJVplqMXffZd2OE5dFqRoEgfiRIkOeZ+ZyyftfxDNUPH4vU1OvR2mvACCsf7WvA4YSpKUipc50aEVr8qOJR2ME6cDbyCrcTF/H48vPoYP6aTkg7tgVVIopeMPvnpxzWfTnqPXXfIMgaaNulWPhUurWtHK4IMo/FHuOEEd21RVhlGd2b2n1ejNT4JGjsSC3UszqvUWQaDUrnw8XLMUZBtQ66/kmMVR8QxdPd/HKCsh9ikJW9bynHr7vWIzpQ/tlp9wTZ/TicfWc4lpz16rDC5E/wy8WDYXajU5kNH5k2COJHgAR5npnPTV2G/l60d3RLtLWi7o8KlGj3IN7qURiOc1HcidsjTMDv5dqse1qO+x5ALWunv3SLyT4TFaPcPkf2kSFhfRneM/uvE+TpY7HHFUF+WX0JJ08XSpy5gxbm3/jqGlKtNmqZ25UTbzP8ed/KLEkYzUJlP4KVfEWhgMdkWl91N79imSoUa7V16DJ8kdoeN+J1Sx10xzchxCpu9wTZ/TicXTczkQWt7DjfGCf97Z9bh+EJA8q2OI6oCeJHgQRZASjpsSc5nIuiNKIz1h2GWq6jDs1HI2vnxQVpalJQpeEKt398VPbFGh4Zf4ibhFwTZNOozSLIJt/1efCX8W2PK4JsnR8+bZt6+RWLZRz1R5ZZlZvabbqEtDVpWOWEONO6q3Q+fShKksmXaiUudDNfjQUIFs/JvfzaHFNHYmX6AZworkB9L392mglm1T5xmp0fd0+Q3Y9jJkEWQo+jga+v69LYzVkQ9tZOwNhfhjV2u9IJ4keCBFkBzNeLQb5dkENwpIF11P3lWCfTkap3VIrrrVV7pE09gioMxxol+zQZ+4TzPeKozlqQpUeM+vGb3SNGglcm7gwzXxZBDsXRZ+zvd7exYZGjb+8AvhYc5Lipq9s1QRbLA3Nwf5C3UYnNpsdyeLt5/Jyspl+nQ8rlZ9Tud1xWEIKPop6J1OCt7dLfbubXGYJXFI418Be+TF3DaQXZLidfE8eMgsx87nvEYuq/gdXBh1DHzrvn8uoF/bIVgvhWSJAVwHy9OvNbBZkTuv8JDBNGPPlVY7NJSfBJgraZdbgDNciwepY1Ik+PYWZffzzOxl4VnIXKd9LUr7Uge7JRM1/X7tKtt2xK4pvP4k+3io8zmQWZly/ZV8/KPuHZyQR4WccSdgA1/PnalkJEWnyYbg4+sJsD0+Y1i/00+YlhNwijE1/QXpRimb4NO/SUtTuKmv1RNoIieEZjX+VfqL97Eqmml6zwXIpTyR1MwK1evMIfB1utkzZH3dg89TyyO/nlgpp9owl/1Z9HopVw8tH9+tIB5rsVxyKm4nAUZOc5cfc6zyTIHL/sh8znR/xxT89y2ouzCc5tCeJHgARZIczpj0vMoiALnoko0I/BOG7A02ta7Nu5AzsPFqKsZYjVGcXjw7G29l6rUfyCdeDjg3hy5TRytu9A5qGLqHppREdji8NzyIJ6I672MZGYGEN71TUUan/DP2t70d98Hw/49K6VIAueSVIsEwY03dBiz44MZP2qw/32Edbee1Rk2J7vyot8CtqIzupr0J7ZjQSTiE2XH8HHFM/QU+wLNbdryoHxI8vBGezeuQ3b9mpxqaZXvJl4ey8XgaYYpVz2Q98yiIHmChTs3YUtGUehrXjBxGkSA4+P2rxwxZ388seQkot7mbh9RldNCY7nbEfapmwc+b0Rr9kI9EN9nmXDm7Nr6jQnbl5nVwRZUGfijkG6CTO2nkWU1XkTxI8ICbKCmKufX5xNQeYI6njklLbi7bBpIxEbQRr69Pg9I9ZmpGqxD1yDgqpXGGQiIdqPD6O1bC+W/VIiPvZjLcgcvxV5qGiXXkJhZCPgvqar2Bq63OE5ZNE3j+VGK94MSbFwRt/qUZKd6PgjEuoU5P3Rg4+i36lp8ZnyI43EJ/G6NN2yI1jw0SDrih6vhj5b2jUOvcEjXS6irabQLblMXI38mjdiO6LtqAH60r2INj0eZY07+RU8o7Dj8lP0DE1tNOM3Cs9v5SPFhRGss5xIx1yPwyVB5o+M8UfVmJ+nx+f+3ekEoTRIkBUGH+UmalPE9eCYoxpx57THUk/8FPgPEf6Zl/Fj3Ibbujoy/t4IXgEI0yQjLjTApZ3OHr7hiEtaicggvxnXDvnzrl6BSxES4OvSOiOPJVSTAk1kCLztpl/t8fSLQHhYsOzNg7sInv4Ijk1BkiZa9ucsrYWKC5JvqAYJibFYLLPubY87+fVQh2JpfCpWJMQgUO3+z1lOlxN3r7Mz+Ih+7ZV37IahEfvtnuEmiB8REmQFwteB+easRDb6NW/isocf4zaurBkTysGVkeOPghC8D9WGSXys2gu/WbgZIoiFDgmywvl5iR/+c0WoKL4c/pmXydkSyocEmY2+U/JQUlKKqhdjbHTcg3Mr5V9eQhA/GiTIBDGHkCCzHBR2wjA2hv6OepxPX/ZN094E8XeCBJkgCIIgFAAJMkEQBEEoABJkgiAIglAAJMgEQRAEoQBIkAmCIAhCAZAgEwRBEIQCIEEmCIIgCAVAgkwQBEEQCoAEmSAIgiAUAAkyQRAEQSgAEmSCIAiCUAAkyARBEAShAEiQCYIgCEIBkCArHPr5RYIgiB8DEmQFolr0syi+iWeSkVqyVhZ+jNtwWzkfBEEQxMKCBFlh+EYEIlGbIopuzFENFq8NgsdST/wU+A8R/pmX8WOiMDNbXkfOF0EQBLFwIEFWEIHxS5B8cTUS2OjXW6PGv/n9NC3chtvyOryunE+CIAhiYUCCrBD4KJcLa+yxePwjSJAVYDm4La/D67o6Uhb8o5CQmGyLJhaBPt6y9nOF4BsJDYslKnCe43CSn2BfH1n7hUhgah6Kzh/BigAv2eNKRVgcLV6PmFDn+yjM129Z8N/nehE/BiTICoCvAydqWafPRrv2YvwzGwXLYW3D6/C63Icra8pC+l0MTUxi/NO/bDAajejvfIyi7bFYpJr7jlpYV4p+FlftgSDZ47OJoPJBcCzLeVwEvO3O1Wl+xifwofspLmUnwnce8jNbCKolOFw/CePEF1TvnbqJmy4nSkBQLULq72/FazHy6AgCnMRovn4NeeGyxwlCqZAgKwC+OYuvB8tNU5s3cdljb8fr8nLuS64Na8wdVkd5HrKyciX25iH/fDme9H1iHfUY6g5Gydb9nsytIEfjZAsTpa5L0DgRZJv87MnDr4WleNhjZPkZR+MJDVQLWJQXJx+EVrsfCf5T5zBdTpSA4LUBV/ulGyWjUY/DoSTIxN8LEmQFkHA6GTFHljuILMc8ItYUJInIjZDNcB/cl1wb1kzXYQl+m3H9FeuUB+5hq3puO2WlCbJsfnxW4WLnZxiHHiLTT3mi9S0oXZAXba3Ah4nPqL1+G73s+jw/GStrR4JMLFRIkOeZn0P8xZEt3zktJ7JmYvLiReSOmeE+uC/uU64tMzN1WLHaF2wU+AbnV0idcsQuHW5XFGKtbwhW5J6F7n4jmm4fQJhVp62Oy8Sxc9dRXv0EVeXXoD2yDVHe8p06n3oMXnUAZy5X4MGjelTeuIicpCVQyQiy1PZFbAm29SWowrG9+B5uX8xCiJ14qGMzkMdiuV3TgOrKchTnpSPCKhZ1mpb5rEPrABMfQzeqK5ifimJsCpRsZspP1Kk2lp93uJjivN2qOzdRdGgDlnjZ2kzl0gdhafm4XF6L2toqXL1wGjs0ATa21riVX59l2HCsBDcqH+PR4zpUXC3CrsQQeFjlyT6vM+XEjKtxOPvOhMbswRXmuyQ7zqGOoFJj1YlKVu8s1tnd7Agqf2RUjsI4Uods/5U4383i7LiAGJkbBxJkYqFCgjzPBLKOkouoKtJLVmTNuCLI3Af3xX3KtWVmpg4r8NAzcdr6xmaps0u40Mv+1qOkSI9B4xj6ujrRWnUcEawz5OuOsXsq0TnEOsgxA7pamqHvHcYo8z/YVo6MKNuNNYIqAMn5DegzMvvhQbQ/16Pl1QhGhzugzb/tIMhS2+04wc7N1k8ctG28Uy62dMo8luicCnTwWEYM6NTr8az9AwzM53D3LWwKkuzU6To0PG3FSwOzG+qH/qme/V2GDJM4zZSf4KPPxfyUbbFqN1tqd2zog3hOz7sNGGY+BtqvYP3iqdil82nEqdwK9BrH0d/diqfNffjA8zHUg7KsWBvhdDu//hvwe8cEa+Mz3nfrUV39DG3v2Ije2Iey7VPnY5/XGXPiZhzOvjPhnhtxrZ/5YNct1k5MBZ9MVLD2xxpPItT+mP8eVA1PwnB/N9Ts2PKzXcx/H4qSbO1EWxJkYoFCgjzPhKxdKoroT/85/c5qVwSZ++C+uE+5tsxM12Hxjnd96XvW2XWiYJnU2fHOla/bjXbfRWbMYht7VfQpPB9jnXKzDmnBZh/eCEsvRRvrvA31eTadq2diMdqZ+Lx7VoRU0w5fQeWHuH1VTKC+sHa/QZCjCtA0ymJp0WFjqLRTm59PRG6VKPTvyzMsm9W+espaFYLsqmEWUwcKoky+IvPRyNp9W1+I1ECznRqRO8vRyc6190a6ZROYdD6fMWroRMmWpRbx9YzYhesd42x0Wo8cq9kAd/O77HQ78/8ON3eEWXwLizfhas9nGJq1llzJ5XW6nLgbh7PvDJ8d+UXXz9p+hXOJtm2oMx7gI8tN3cFQm3JO0IEGJv5jqNgpzf4I0YVoZdeoV7fOYS2fBJlYqJAgzzNKEmQuIku3leIv1vEO688g2kPq6KTOexS3tqnt7H2wtXyIjb6YeMfadYqs40280MPqDUK31lzmi4zKMWb/J44utbcPYkI3KnbiXyPIPJbNtwzMNxPK2Ck7yTYUG/J1uHR2F5aaOm9XBLnpzEosCQmXiFiOhNWZyCttwwd2bLD2IJaY273J2jXUIdthWt0Xm8oGWEyPkO0jHTMLVffltfC0a9dz9VVxbbTjvLQPwN38cjaVSTcL+Xb5WuQfZLNz2h1B/po4nH1nOELSJXSx8+wqTpkqUy3Grvvsu8GnpK1mFKRjS5HXyEb5g5XYvEg6JqiicELPYn1XjrV2ywIkyMRChQR5npnPKet3Hc9Q/fCxSE29Hq29Boyw8tG+BhxOmJqClDrXqRGhxY8qHoUdrFNkI69wO3ERjy8/jw7mr+mEtGNbUCWi6AWzf37KYd2Xo95T9w2CrIG2XYqFT6Vb28rhiiDzWOwxThjRXVuEVZbRvand58VIjU+Cxo7UQj2r8xpFptGgdD5cvBxjFFTroOufxFj1AVE83c0vJyj7IQZZ2fuWcvy6az2iA+WfxXVPkN2Pw9l3hmPJWa8OK0z+BL9cPBhmNzqV2fCxa0OIOoPm8Un030i3uYkJPabH2MQwytJ9be1JkIkFCgnyPDOfm7oM/b1o7+iWaGtF3R8VKNHuQbzVozAc56K4E7dHmIDfy7VZ97Qc9z2AWtZOf+kWk30mKka5fY7sI0PC+jK8Z/ZfJ8jTx2KPK4L8svoSTp4ulDhzBy3Mv/HVNaRajcjM7cqJtxn+vG9lliSMZqGyH8FKvqJQwGMyra+6m1+xTBWKtdo6dBm+SG2PG/G6pQ6645sQYhW3e4LsfhzOrpuZyIJWdpxvjJP+9s+tw/CEAWVbHEfU0nrxJF5U61B8sWSKMj3esfKPLC6+rmy2J0EmFiokyApASY89yeFcFKURnbHusE2HaDkemo9G3pFekKYmBVUarnD7x0dlX6zhkfGHuEnINUE2jdosgmzyXZ8Hfxnf9rgiyNb54dO2qZdfsVjGUX9kmVW5qd2mS0hbk4ZVTogzrbtK5+NkM5JqJS7w3cONBQgWz8m9/NocU0diZfoBnCiuQH0vf3aaCWbVPnGanR93T5Ddj2MmQRZCj6OBr6/r0tjNWRD21k7A2F+GNfbTz6oU/PaStT3+BaPGz46wkbNx5DGyrd44RoJMLFRIkBXAfL0Y5NsFOQRHGliH2F+OdXYdKUe9o1Jcb63aI23qEVRhONYo2afJ2Cec7xFHddaCLD1i1I/f7B4xErwycWeY+bIIciiOPmN/v7uNDaZ1Rmu8A/hacJDjpq5u1wRZLA/Mwf1B3kYlNpsey+Ht5vFzspp+nQ4pl59Ru99xWUEIPop6JlKDt7ZLf7uZX2cIXlE41sBf+DJ1DacVZLucfE0cMwoy87nvEYup/wZWBx9CHTvvnsurHWZOPFZfxWvmu/viKptyM4v38JH1Z9QdCrOUkSATCxUSZAUwX6/O/FZB5oTufwLDhBFPftXYrO8JPknQNrMOd6AGGVbPskbk6VkHakT98Tgbe1VwFirfSVO/1oLsyUbNfF27S7fesimJbz6LP90qPs5kFmRevmRfPSv7hGcnE+BlHUvYAdTw52tbChFp8WG6OfjAbg5Mm9cs9tPkJ4bdIIxOfEF7UYpl+jbs0FPW7ihq9kfZCIrgGY19lX+h/u5JpJpessJzKU4ldzABt3rxCn8cbLVO2hx1Y/PU88ju5JcLavaNJvxVfx6JVsLJR/frSweY71Yci5iKw1GQnefE3es8kyBz/LIfMp8f8cc9PctpL84m2NryuDfcGGR+HHdkW2z8dotrz9aPSpEgEwsVEmSFMKc/LjGLgix4JqJAPwbjuAFPr2mxb+cO7DxYiLKWIVZnFI8P275NSfBajeIXrAMfH8STK6eRs30HMg9dRNVLIzoaWxyeQxbUG3G1j4nExBjaq66hUPsb/lnbi/7m+3ggvhxiSpAFzyQplgkDmm5osWdHBrJ+1eF++whr7z0qMmzPd+VFPgVtRGf1NWjP7EaCScSmy4/gY4pn6Cn2mV7daMmB8SPLwRns3rkN2/ZqcammV7yZeHsvF4GmGKVc9kPfMoiB5goU7N2FLRlHoa14wcRpEgOPj9q8cMWd/PLHkJKLe5m4fUZXTQmO52xH2qZsHPm9Ea/ZCPRDfZ5lw5uza+o0J25eZ1cEWVBn4o7B9CrM1rOIsjpv8bj3DpTzGQnTmrr1MYsNf2HIPX7NO1AQbYqVBJlYoJAgK4i5+vnF2RRkjqCOR05pK94OmzYSsRGkoU+P3zNibUaqFvvANSioeoVBJhKi/fgwWsv2YtkvJeJjP9aCzPFbkYeKduklFEY2Au5ruoqtocsdnkMWffNYbrTizZAUC2f0rR4l2YmOPyKhTkHeHz34KPqdmhafKT/SSHwSr0vTLTuCBR8Nsq7o8Wros6Vd49AbPNLlItpqCt2Sy8TVyK95I7Yj2o4aoC/di2jT41HWuJNfwTMKOy4/Rc/Q1EYzfqPw/FY+UlwYwTrLiXTM9ThcEmQ2AhYfVWN+nh53fHe6764qMc8tpzUOx6zx3l4p7ixvP7dC/JsEmViokCArDD7KTdSmiOvBMUc14s5pj6We+CnwHyL8My/jx7gNt3V1ZPy9EbwCEKZJRlxogEs7nT18wxGXtBKRQX6yu66t4c+7egUuRUiA74y2HB5LqCYFmsgQeNtNv9rj6ReB8LBg2ZsHdxE8/REcm4IkTbTsz1laCxUXJN9QDRISY7FYZt3bHnfy66EOxdL4VKxIiEGg2v2fs5wuJ+5eZ2fwEf3aK+/YDUMj9ts9w00QPyIkyAqErwPzzVmJbPRr3sRlDz/GbVxZMyaUgysjxx8FIXgfqg2T+Fi1F36zcDNEEAsdEmSF8/MSP/znilBRfDn8My+TsyWUDwkyG32n5KGkpBRVL8bY6LgH51bKv7yEIH40SJAJYg4hQWY5KOyEYWwM/R31OJ++7JumvQni7wQJMkEQBEEoABJkgiAIglAAJMgEQRAEoQBIkAmCIAhCAZAgEwRBEIQCIEEmCIIgCAVAgkwQBEEQCoAEmSAIgiAUAAkyQRAEQSgAEmSCIAiCUAAkyARBEAShAEiQCYIgCEIBkCATBEEQhAIgQVY43kHxCNTsx5JUrQj/zMvkbAmCIIiFCwmyAlEt8hPFV5M3gpWF/08WfozbcFs5HwRBEMTCggRZYajD1kBzzCiK7rLdPfBfWQxVyFb85Jcswj/zMn5MFGZmy+vI+SIIgiAWDiTICiIgNgdJp/8PG/0a4b1sP/7t5+XTwm24La/D68r5JAiCIBYGJMgKgY9yubBG73mNfyz+RVaA5eC2vA6v6+pIWfCPQkJisi2aWAT6eMvazxWCbyQ0LJaowHmOw0l+gn19ZO0XIoGpeSg6fwQrArxkjysVz0ANftmciaysTKxN1mCJ7+x8V7xDE9h11iDYayofcmXzwVxfK/P3f1nw/H7flZL/uYQEWQHwdWA+9cxHu3Ji/D984uERngGvpVn4d/9Uh+O8Dq/Lfbiypiyk38XQxCTGP/3LBqPRiP7OxyjaHotFqrn/JxDWlaKfxVV7IEj2+GwiqHwQHMuENi4C3nbn6jQ/4xP40P0Ul7IT4TsP+ZktBNUSHK6fhHHiC6r3BlqVO8/JfCN4xyLjyp/oN9peF6OhB/cKd2GZ+tviTbjQy/LRjhORU37kyr4XznLv7Fp9T8zf/4a8cNnjc8Vc5l8pkCArAL45i68Hy01TB666goT8/2XZzLVC+3+xNKMF/xG0wcaO1+XHuS+5Nqwx/8N1lOexkUauxN485J8vx5O+T+yfYAx1B6Nk635P5laQo3GyhXV0XZegcSLINvnZk4dfC0vxsMfI8jOOxhMaqBawKC9OPgitdj8S/K07f+c5mU+E4G3QtY2yvH9Gb30ZtMf2IX3zTmQdPo+b+gGMsmv1tvoQlnp+fczzL8jOcy93rb4nJMjzBwmyAtAcHcay3Jc2AssJ3VwtimxY+hN4/dceqJZshl9iIRsJTzA+QwhKs7HnPrgvuTasme4fTvDbjOuvWMcwcA9bv3HU4S5KE2TZ/PiswsXOzzAOPUSm39+ro1CiIAsqf2wsfcc65kHU5q/GYvtrxUaQ63Vd7Hp9xvOTGptj7qBkQZ5rSJDnDxLkeebn4ERRdP2Tf7MR10X/tVsa8a6/a1PO+UfAGsTn/zfCtjy0Kec+eB3uU64tMzP9w8VqX7B/hDc4v0L6R4jYpcPtikKs9Q3Bityz0N1vRNPtAwiz6jjUcZk4du46yqufoKr8GrRHtiHKW/4fSVAtQvCqAzhzuQIPHtWj8sZF5CQtgUpGkKW2L2JLsK0vQRWO7cX3cPtiFkLsOjB1bAbyWCy3axpQXVmO4rx0RFjFok7TMp91aB1gHaChG9UVzE9FMTYFSjYz5SfqVBvLzztcTHHebtWdmyg6tAFL7Na/pnLpg7C0fFwur0VtbRWuXjiNHZoAG1tr3MqvzzJsOFaCG5WP8ehxHSquFmFXYgg8rPJkn9eZcmLG1TicfWdCY/bgCvNdkh3nUEdQqbHqRCWrdxbrTDc7Hgnn0WacxMeHBxDsRKgEr3XQ9bG4ux3FzNV43RVkV661nO3XfB+d/Q+Idd2+Hr6I2ngUp3X3UV33EGUlJ7E+3HatWO77P1U/AJqdJ3HhZh2q7l5Fwe7VCGI5F1RBiN95AueuV+Eh+z5fK8xBjK9tHFM+XPvukyATc07A8r2iiKpC0m3ENWzrIySd+t/4yXelTfl0cB/cF/cp15aZmQQn8NAz9o8whhubpX8E6R9Dj5IiPQaNY+jr6kRr1XFEiP+IPojdU4nOIdaZjBnQ1dIMfe+wOI042FaOjCi7f3ZVAJLzG9DHOlnj8CDan+vR8moEo8Md0ObfdhBkZ/+UgioO2jbmo6MYMaZOmMcSnVOBDh7LiAGdej2etX+Agfkc7r6FTUGSnTpdh4anrXhpYHZD/dA/1bO/y5Bh6vBmyk/w0edifsq2WLWbLbU7NvRBPKfn3QYMMx8D7VewfvFU7NL5NOJUbgV6jePo727F0+Y+fOD5GOpBWVasjXC6nV//Dfi9Y4K18Rnvu/Worn6GtndsRG/sQ9n2qfOxz+uMOXEzDmffmXDPjbjWz3yw6xZrJ56CTyYqWPtjjScRajoWfaaD+XmLi6nTb94KWr4B69YlI8Qkil8X78yC7M61Fm1n4fvoLA73z68JZw9V4fXQgBh3Y8eA+D03fnyKvRFWvmW+/+b6Rccf4e3HN9A/a0Z7P/+ejaHpzDqsOtOMD2K5nsXBlxcmYXiWL/YRtj5c/+7LnfffHRLkeca8fvyTX4qNuEbve4OY/e9tymaC+xBH1TOsI08nOPwffX3pe/aP0ImCZdI/Av/H4BtoRrvvIjNmsY29KvoUno+xTqBZh7Rgsw9vhKWXoo11Fob6PEvnyvFMLEY7+wd896wIqaZdo4LKD3H7qtg/6RfxH/mrBTmqAE2jLJYWHTaGSh04P5+I3CpR6N+XZ1g2q331lLUqBNlVwyymDhREmXxF5qORtfu2vhCpgWY7NSJ3lqOTnWvvjXTLJjDpfD5j1NCJki1LLR2QZ8QuXO8YZyOkeuRYjYTcze+y0+3M/zvc3BFm8S0s3oSrPZ9haNZaciWX1+ly4m4czr4zfHbkF10/a/sVziXatqHOeICPLDd1B0MtZdvKx9jNRB2ynMwGOONr4rXPh2yO3LjWs/V9lIvj685vEqNdt7EtQhJrQeWL6IOPxFj6S9Onvi9OBZndSPx1FWuDTefCBgtaPd9Twfy2X8PaIFMcnmHIuMP7kA/4fbV9DK5/9+XO++8OCfI8oyRB5h3L0m2l+Iv9ow/rzyDaQ/pHkP4xRnFrm9rO3gdby4dYh8nEO9b2n4Z3vIkXeli9QejWmst8kVHJO9g/cXSpvX0QE7pRsRP/GkHmsWy+ZWC+mVDGTtlJtqHYkK/DpbO7sNTc6bggyE1nVmJJSLhExHIkrM5EXmkbPrBjg7UHscTc7k3WrqEO2VadieiHne+msgEW0yNk+0jH+Pnwc+y+vBaedu16rr6KXua743yyqb57+eVsKpNuFvLt8rXIP8hm965cXp3l5GvicPad4QhJl9DFzrOrOGWqTLUYu+6z78YIy6NplCmoInFCz+J5pcMKu1xNx9fHa5sP+zJ3rrVoO0vfR7k4vu78xlGZZXtDLahS8FsPa5fdrJlHs84FeczhegYdbhS/z3WHltiUC+vL8J75qDsYbCnjPlz97pvt5f73/86QIM8z8zll/a7jGaofPhapqdejtdeAEVY+2teAwwlTU17SP8bUiNDiRxWPwg7pnzlcpsMUlp9HB/PXdELasS2oElH0gtk/P+Ww7stR76n7BkHWQNtu27FMhyuCzGOxxzhhRHdtEVZZRvemdp8XIzU+CRo7Ugv1rM5rFJlGg9L58M7SMUZBtQ66/kmMVR8QxdPd/HKCsh9ikJW9bynHr7vWIzrQdurSjFxenQuy+3E4+85wLDnrnRJawS8XD4bZjU5lNnzMZUy48hqZ3dvr+EWmXWd8fby2+bAvc+daz+b30TGOrz2/bmgdBDwQB/ljVf2llhw7F2R2A2CaNTOzKLeOlU8wobbzmyjddD0viLaUST5c++5P2Tv+7/+dIUGeZ+ZzU5ehvxftHd0Sba2o+6MCJdo9iLd7vMLZP4ag2onbI0zA7+XarP1YjvseQC1rp790i8k+ExWj3D5H9pEh81311wny9LHY44ogv6y+hJOnCyXO3EEL8298dQ2pVpt3zO3KibcZ/gxpZZYkjNL5OI5gJV9RKOAxmdZX3c2vWMZEbK22Dl2GL1Lb40a8bqmD7vgmy/oqRy6vzgXZ/Thm6kwjC1rZcb4xTvrbn3XswxMGlG2xHYFtusFGghNPsNtug9B0zFa89mXuXOuZYrDHPUGevevB93Tse8TaZYK8yuTLuSA71pcEeRw30+38OhVk1777U/aObf6dIUFWAEp67EkO5//M0l2tse4w1HIdQ2g+Glk7Ly5IU5OCKg1XuP3jo7Iv1vDI+EPclOKaIJtGCRZBNvmuz4O/jG97XBFk6/zwacLUy6/Ezqf+yDKrclO7TZeQtiYNq5wQZ1rnk86nD0VJMvlSrcSFbuarsUDcUexufm2OqSOxMv0AThRXoL5XWufrr9onTrPz43J5dS7I7scxU2cqhB5HA19z1aWxm7Mg7K2dYKJQhjX2u9LzuXB/ROkm5y+84Wun0Vt/xZG8TMSy+rMVr32ZO9d6Nr+PjnHM3vWYe0F27bs/Ze/Y5t8ZEmQFYF5HnusXg3y7IIfgSAP/Zy7HOruOlKPeUSmut1btkdatBFUYjvEpSGafJmOfcL5HHGVYC7L0iFE/frN7xEjwysSdYebLIsihOPqM/f3uNjYscvTtHcDXgoMcN9HIPCrjLD9CYA7uD/I2KrHZ9FiOZVrVavp1OqRcfkbt/hCHY0LwUdQzkRq8tV362838OkPwisKxBv7Cl6lrKHdNneXka+KYqTPlPvc9YjH138Dq4EOoY+fdc3m1w8yJEJ6H+iE2GmwptOxpsEfwzUQFf2TIND08W/Hal7lzrWfz++gYx+xdj7kXZNe++xxnbf6dIUFWAPP16sxvFWRO6P4nMEwY8eRXjc1GDcEnCdpm1uEO1CDD6lnWiDw9hpl9/fE4G3tVcBYq30nTgdaC7MlGzXxdu0u33rK2xDefxZ9uFR8fMQsyL1+yr56VfcKzkwnwso4l7ABqeIfNOvVIiw/TzcEHdnNg19FPl58YdoMwOvEF7UUplunCsENPWbujqNkfZSMogmc09lX+hfq7J5FqeskKz6U4tdnBOnWrF6/wjnG1TtqMc2Pz1DOZ7uSXd+rZN5rwV/15JFp11Hx0v750gPluxTHT4y1y13S6nLh7nV3pTP2yHzKfH/HHPT3LaS/OJjja8tFvwrkujLG2227uQ4zdy2oEdSIOP+TnNowHuyMs5bMRr1yZO9d6tr6PcnHM1vWYa0F257vvrM2/MyTICmFOf1xiFgVZ8ExEgX4MxnEDnl7TYt/OHdh5sBBlLXztbxSPD8fa2nutRvEL1mGMD+LJldPI2b4DmYcuouqlER2NLQ7PIQvqjbjKX/owMYb2qmso1P6Gf9b2or/5Ph7wKS4rQRY8k6RYJgxouqHFnh0ZyPpVh/vtI6y996jIsD3flRf5FLQRndXXoD2zGwkmEZsuP4KPKZ6hp9gXam7XlAPjR5aDM9i9cxu27dXiUk2veDPx9l4uAk0xSrnsh75lEAPNFSjYuwtbMo5CW/GCdbCTGHh81OaFK+7kl4tXcnEvE7fP6KopwfGc7UjblI0jvzfiNRt9fKjPs2wwcnZNnebEzevsSmcqqDNxxyDdhBlbzyLK6rxt7Vbi0P3X4rO+H3v0uHP9Mk7ma1Gkq4L+3WfWzie06zbZTA3PRrxyZe5c69n6Pk4bxzdej7kfIbv+3XfW5t8ZEmQFMVc/vzibgswR1PHIKW3F22HTRiI2gjT06fF7RqzNyMBiH7gGBVWvMMhEQrQfH0Zr2V4s+6VEfPTBWpA5fivyUNEuvfSAd759TVexNXS5w3PIom8ey41WvBmSYuGMvtWjJDvR5rEfyTYFeX/04KPod2pafKb8SCOfSbwuTZ/aEeyjQdYVPV4Nfba0axx6g0e6XERbTVlacpm4Gvk1b8R2RNtRA/SlexFtejzKGnfyK3hGYcflp+gZmtp8xMXj+a18pLgyYnKSE+mY63G40plaHg1ifp4en9oRLAcXjsTD5Wjq4wJn/t58Qn97LQoz5X/s41vjdZojF6+1aDsL30fn1+rbr8fcCzLz4eJ331mbf2dIkBUGH+XyqWe+Hrxsdw/8VxZDFbIVP/kli/DPvIwf4zbc1tWR8fdG8ApAmCYZcaEBLu0s9fANR1zSSkQG+cnuuraGP1/pFbgUIQG+M9pyeCyhmhRoIkPg7WTt0YynXwTCw4Jlbx7cRfD0R3BsCpI00bI/Z2ndyXBB8g3VICExFotl1hntcSe/HupQLI1PxYqEGASqp3/LlRzT5cTd6+wMPqJfe+Udu2FoxH6753qdwZ/3XRyhgSZ+ucs/hzlb8doz07W25nt+H7/X+c023/Ld/1EgQVYgfB2Yb87S5I1YNnPZw49xG1fWjAnl8CPe9TtDCN6HasMkPlbthZ+ChYSYHei7PzMkyArHOygegZr9ovhy+GdeJmdLKB/qlNgIMCUPJSWlqHoxxkbHPTi30rWRLrGwoe/+zJAgE8QcQp0Sy0FhJwxjY+jvqMf59GWKnmYlZg/67s8MCTJBEARBKAASZIIgCIJQACTIBEEQBKEASJAJgiAIQgGQIBMEQRCEAiBBJgiCIAgFQIJMEARBEAqABJkgCIIgFAAJMkEQBEEoABJkgiAIglAAJMgEQRAEoQBIkAmCIAhCAZAgEwRBEIQCIEFWOPTziwRBED8GJMgKRLXITxRfTd4IVhb+P1n4MW7DbeV8EARBEAsLEmSFoQ5bA80xoyi6y3b3wH9lMVQhW/GTX7II/8zL+DFRmJktryPniyAIglg4kCAriIDYHCSd/j9s9GuE97L9+Lefl08Lt+G2vA6vK+eTIAiCWBiQICsEPsrlwhq95zX+sfgXWQGWg9vyOryuqyNlwT8KCYnJtmhiEejjLWs/Vwi+kdCwWKIC5zkOJ/kJ9vWRtV+IBKbmoej8EawI8JI9rhTkroUmJgxqz+njNtdb6uL5me2XBc/vNfYOTWBxaBDspezrQnwfSJAVAF8H5lPPfLQrJ8b/wyceHuEZ8FqahX/3T3U4zuvwutyHK2vKQvpdDE1MYvzTv2wwGo3o73yMou2xWKSa+w5BWFeKfhZX7YEg2eOziaDyQXAs6+DjIuBtd65O8zM+gQ/dT3EpOxG+85Cf2UJQLcHh+kkYJ76gem+gVbnznMwXzq7F2PBHvGhpwJUDKfCTidVc736WawJrtm/IC5c9PlckXOhl16UdJyIX7veL+HpIkBUA35zF14PlpqkDV11BQv7/smzmWqH9v1ia0YL/CNpgY8fr8uPcl1wb1pg7n47yPGRl5UrszUP++XI86fvEOoQx1B2Mkq37PZlbQY7GyRYmSl2XoHEiyDb52ZOHXwtL8bDHyPIzjsYTGqgWsCgvTj4IrXY/EvynzmG6nMwXjtdiN3IPaXH+6j3UdY2wa/EZvbWFSLUbCZMgEwsREmQFoDk6jGW5L20ElhO6uVoU2bD0J/D6rz1QLdkMv8RCNhKeYHyGEJRmY899cF9ybVgzXecj+G3G9VesUx64h63que0UlCbIsvnxWYWLnZ9hHHqITL+/V6epZEGWvRZey7DtYjPes+M9VzbYzOqQIBMLERLkeebn4ERRdP2Tf7MR10X/tVsa8a6/a1PO+UfAGsTn/zfCtjy0Kec+eB3uU64tMzN1PrHaF6xTeIPzK6ROIWKXDrcrCrHWNwQrcs9Cd78RTbcPIMyqA1THZeLYuesor36CqvJr0B7Zhihv+U5FUC1C8KoDOHO5Ag8e1aPyxkXkJC2BSkaQpbYvYkuwrS9BFY7txfdw+2IWQuzEQx2bgTwWy+2aBlRXlqM4Lx0RVrGo07TMZx1aB5j4GLpRXcH8VBRjU6BkM1N+ok61sfy8w8UU5+1W3bmJokMbsMRuLXAqlz4IS8vH5fJa1NZW4eqF09ihCbCxtcat/Posw4ZjJbhR+RiPHteh4moRdiWGwMMqT/Z5nSknZlyNw9l3JjRmD64w3yXZcQ51BJUaq05Usnpnsc50szPTtRBUYdhbNwajsRNnNFN7D6wFWR27C6ev/YHqx49QrivG4Y3R8LT7zsi1M3UOAdDsPIkLN+tQdfcqCnavRhCrL6iCEL/zBM5dr8JDdg2vFeYgxtfWr7vXmwT5x4YEeZ4JWL5XFFFVSLqNuIZtfYSkU/8bP/mutCmfDu6D++I+5doyM1MnF3joGesUxnBjs9QpSJ2EHiVFegwax9DX1YnWquOIEDslH8TuqUTnEOvIxwzoammGvncYo8z/YFs5MqJsRyiCKgDJ+Q3oMzL74UG0P9ej5dUIRoc7oM2/7SDIzjooQRUHbRvz0VGMGFPnymOJzqlAB49lxIBOvR7P2j/AwHwOd9/CpiDJTp2uQ8PTVrw0MLuhfuif6tnfZcgwidNM+Qk++lzMT9kWq3azpXbHhj6I5/S824Bh5mOg/QrWL56KXTqfRpzKrUCvcRz93a142tyHDzwfQz0oy4q1EU638+u/Ab93TLA2PuN9tx7V1c/Q9o6N6I19KNs+dT72eZ0xJ27G4ew7E+65Edf6mQ923WLtRdEnExWs/bHGkwg1X9MZrgXHM6UEL5lNq3bqhTnmeg+0x/Fo4As+vulCY2MnXhlYLiaG0HRxqyiq9vbW7Ujn0ISi44/w9uMb6J81o72f53YMTWfWYdWZZnwQy/UsF6OsfBKGZ/ni/4WtD9evt/11IX4sSJDnGfP68U9+KTbiGr3vDWL2v7cpmwnuQxxVz7COPF0nxzve9aXvWafQiYJlUqfAOwm+kWa0+y4yYxbb2KuiT+H5GOuUm3VICzb78EZYeinaWOdtqM+zdK4cz8RitLPO6N2zIsu6n6DyQ9y+KtZhfRE7ta8W5KgCNI2yWFp02BgqjZb4+UTkVolC/748wzKt+dVT1qoQZFcNs5g6UBBl8hWZj0bW7tv6QqQGmu3UiNxZjk52rr030i2bwKTz+YxRQydKtiy1dMaeEbtwvWOcjU7rkWM1G+Bufpedbmf+3+HmjjCLb2HxJlzt+QxDs9aSK7m8TpcTd+Nw9p3hsyO/6PpZ269wLtG2DXXGA3xkuak7GDpl74IgC165+IPl2VCeaVnXN9cbMw7i8cnVlo1fgjoJh6reYWziPa5u9J/y4VSQ2c3cX1exNtj0fWI3yFo930cwidH2a1gbZKrvGYaMO/z/5gN+X22bB3eut9x1IX4cSJDnGSUJMheRpdtK8RfreIf1ZxDtIXUKUicxilvb1Hb2PthaPiROFxbE2nYgvONNvNDD6g1Ct9Zc5ouMSj69+CeOLrW3D2JCNyp24l8jyDyWzbcMzDcTytgpO8k2FBvydbh0dheWmjtmFwS56cxKLAkJl4hYjoTVmcgrbcMHdmyw9iCWmNu9ydo11CHbqmMV/bDz3VQ2wGJ6hGwf6Rg/H36O3ZfXOkybeq6+il7mu+N8sqm+e/nlbCqTbhby7fK1yD/IZue0XF6d5eRr4nD2neEISZfQxc6zqzhlqky1GLvus+/GCMuj1YyCS4KsSsXFXhY3u+EIN8VtrjfKRtvWI1bxWMBuPGAj8dEnxxFsZ+8oyGMO5xB0uFG8hnWHltiUC+vLxPXsuoPBljJ3rrfZngT5x4UEeZ6Zzynrdx3PUP3wsUhNvR6tvQaM8E6srwGHE6amIKVOYmpEaPGjikdhh21HaHN8+Xl0MH9NJ6Qd24IqEUUvmP3zUw7rvhz1nrpvEGQNtO1SLPYdsByuCDKPxR7jhBHdtUVYZRndm9p9XozU+CRo7Egt1LM6r1FkGg1K58PFyzFGQbUOun42qqs+IIqnu/nlBGU/xCAre99Sjl93rUd0oPymJrm8Ohdk9+Nw9p3hWHLWq8MKkz/BLxcPhtmNTmU2fKzbdkmQ10L3lvl7egKBZn+mes9PxsjY+7Cbv88wDpRjrZ29oyBPzRSZWZRbx8onmFDblguJ0o3G84JoS5k713vKngT5R4UEeZ6Zz01dhv5etHd0S7S1ou6PCpRo9yDe6lEYjrNOQlDtxO0RJuD3cm3WwSzHfQ+glrXTX7rFZJ+JilFunyP7yJB5hPF1gjx9LPa4Isgvqy/h5OlCiTN30ML8G19dQ6rVRi1zu3LibYY/71tp2u0rnY/jCFbyFYUCHpNpfdXd/IplqlCs1dahy/BFanvciNctddAd34QQq7jl8upckN2PYyZhiSxoZcf5xjjpb38mcsMTBpRtsZuFcUWQWfsPx9lNSGn6VJmp3v1s+RuSNVf49HIj9ptvrJwKsuM5SII8jpvptuXOBdm16z1l7zxvxN8bEmQFoKTHnuRw1kmY7/CNdYehluuoQ/PRyNp5cUGamhRUabjC7R8flX2xhkfGH+ImIdcE2TRqswiyyXd9HvxlfNvjiiBb54ePqlIvvxI74vojy6zKTe02XULamjSsckKcad1VOp8+FCXJ5Eu1Ehe6ma/GAnEq1d382hxTR2Jl+gGcKK5Afa+05tlftU+cZufH5fLqXJDdj2MmYRFCj6OBr6/r0tjNWRD21k7A2F+GNXa70l35rvoyG75HoOmE1XUx1as/PLUebc222ywnxirsNLX3fQXZtes9Ze88b8TfGxJkBWBeR57rF4N8uyCH4EgD61D6y7HOriPlqHdUiuutVXukTT38EZVjjZJ9mox9wvkecVRnLcjSI0b9+M3uESPBKxN3hpkviyCH4ugz9ve729iwyNG3dwBfCw5y3NTV7Zogi+WBObg/yNuoxGbzYzms3Tx+TlbTr9Mh5fIzaveHOBwTgo+inonU4K3t0t9u5tcZglcUjjXwF75MXUO5a+osJ18Tx0zCwn3ue8Ri6r+B1cGHUMfOu+fyaoeZk5m+q4LnCpxr/wzjR9s1fHO9tzfSHR9xUiVJSyfdlxFvOvZ9Bdm1682ZKW/E3xsSZAUwX6/O/FZB5oTufwLDhBFPftXYdHyCTxK0zazDHahBhtWzrBF5egwz+/rjcTb2quAsVL6Tpn6tBdmTjZr5unaXbr1lnY1vPos/3So+zmQWZF6+ZF89K/uEZycT4GUdS9gB1PDna1sKEWnxYbo5+MBuDkyb1yz20+Qnht0gjE58QXtRimX6NuzQU9buKGr2R9kIiuAZjX2Vf6H+7kmkml6ywnMpTiV3MAG3evEKfxxstU7aHHVj89Tzqe7klwtq9o0m/FV/HolWwslH9+tLB5jvVhyLmIrDUZCd58Td6+yKsPhlP2Q+P+KPe3qW016cTXC0ne5aeEZsQ1H9e1Z3As9+tX2u2VzPONSEw5FT09Z8E9qSLGnXfTsb0Zuv4fcUZHeutyt5I/6+kCArhDn9cYlZFGTBMxEF+jEYxw14ek2LfTt3YOfBQpS1DLE6o3h8ONbW3ms1il+wDnx8EE+unEbO9h3IPHQRVS+N6GhscXgOWVBvxNU+1rFOjKG96hoKtb/hn7W96G++jwd8us9KkAXPJCmWCQOabmixZ0cGsn7V4X77CGvvPSoybM935UU+BW1EZ/U1aM/sRoJJxKbLj+BjimfoKfaFmts15cD4keXgDHbv3IZte7W4VNMr3ky8vZdr2Wwk5bIf+pZBDDRXoGDvLmzJOAptxQsmTpMYeHzU5oUr7uSXP4aUXNzLBOozumpKcDxnO9I2ZePI7414zUZiH+rzLBvenF1Tpzlx8zq7IiyCOhN3DNJNmLH1LKKszttiY7oWvY+voejCJcbvuFxahdqmbrzhz0Qb3+Hh2XSE2o3cpXqf0dzYio9vG3H5+B6kp+fiyG+P0MNyMfb2LjZbvzb0OwqyO9fblbwRf19IkBXEXP384mwKMkdQxyOntBVvh00bidgI0tCnx+8ZsTYjVYt94BoUVL3CIOsYRfvxYbSW7cWyX0rEx0CsBZnjtyIPFe3SSyiMbATc13QVW0OXOzyHLPrmsdxoZZ21FAtn9K0eJdmJDj+YIKhTkPdHDz6KfqemxWfKjzQSn8Tr0nTLjmDBR4OsK3q8Gvpsadc49AaPdLmItppCt+QycTXya96I7Yi2owboS/ci2vR4lDXu5FfwjMKOy0/Rw8TKEge7UXh+Kx8pLoxgneVEOuZ6HK4ICx+5i4+qMT9Pj8u/O918LSznwj4PD/Tjr8Z6VJQWIztx6scxHOsx0dwegS2Xm/HW/F0zGtFbX4JNYbabvb6vILt+vV3JG/H3hQRZYfBRLp965uvBy3b3wH9lMVQhW/GTX7II/8zL+DFuw21dHRl/bwSvAIRpkhEXGuDSTmcP33DEJa1EZJCf7K5ra/hUo1fgUoQE+M5oy+GxhGpSoIkMgbfd9Ks9nn4RCA8Llr15cBfB0x/BsSlI0kTL/pyldYfLBck3VIOExFgslln3tsed/HqoQ7E0PhUrEmIQqHb/5yyny4m719kZfES/9so7JpKN2G/3DPds47k4CsuTViDcT37X9ffiW6438eNBgqxA+Dow35ylyRuxbOayhx/jNq6sGRPKgUZAUwjB+1BtmMTHqr2yP6H4d4CuN+EOJMgKxzsoHoGa/aL4cvhnXiZnSygf6qDZaDUlDyUlpah6McZGxz04t3JuR61zCV1vwh1IkAliDqEOmuWgsBOGsTH0d9TjfPqyb5r2Vjp0vQl3IEEmCIIgCAVAgkwQBEEQCoAEmSAIgiAUAAkyQRAEQSgAEmSCIAiCUAAkyARBEAShAEiQCYIgCEIBkCATBEEQhAIgQSYIgiAIBUCCTBAEQRAKgASZIAiCIBQACTJBEARBKAASZIIgCIJQACTIBEEQBKEASJAJgiAIQgGQIMuQlbMXrW3d6Hs76EBbRw82btkmW48gCIIgvhYSZDtiNUl4/eYDqmoeQ3u22IHax43oefUO6zZslq1PEARBEF8DCbIdBw8fF0fCcUyYIyJjHIhdvgKP6hvxsrcfq9esl/XxdyEwNQ9F549gRYCX7HGCIAhi9iBBtiO/oFAUZDkxNrM8fiUanjbbTGXb0/v6Paof1iMxKUW2HaUjqJbgcP0kjBNfUL03UNaGIAiCmD1IkO1wRZA5CUxo5aa0zZwtuoSm5jZ0vHiN4JBw2baUzuLkg9Bq9yPBn0bIBEEQ35sFIcgxyxPg6z/zKI3bcFu5Y67iqiC7Quov60RfubkHZNsiCIIgCDMLQpDv3KtBWfl9LA4Mlj3O4ce4DbeVO+4qsynIHO6L+5Rry4zgswwbjpXgRuVjPHpch4qrRdiVGAIPlePIVB2bgbxz13G7pgFVd26i6NAGLPGytYvYpcPtikKs9Q3Bityz0N1vRNPtAwiN2YMrFfdQkh1nY88RVGqsOlHJ6p3FOj/Jn+TnIrYETx9HdWU5ivPSEeEtP5J2JWaCIIgfnQUhyLHLk1BT98ypKJvFmNtwW/vj7uBMkBNWpOLw0RMi/LP9cWfMJMiC/wb83jEB48RnvO/Wo7r6GdrefYbR2Iey7VNT3YLKB9HZFegYmsTY0Ae0P9fjebcBwxOTGGi/gvWLpwQu4UIv86dHSZEeg8Yx9HV1orXqOMI9N+Ja/ySMHcWItRN7wScTFQbmu/EkQk3HJD/tOBE5ZSvGkSPFYRwxoFOvx7P2DzCwOIa7b2FTkJ2tizETBEH86CyYNWRnojybYsyRE+T1G9PR0fVaLOfwz7zM2sYZMwnystPtTPTe4eaOMMuIWFi8CVd7PsPQrEWMuSwyH42jk3hbX4jUQKkuH9VG7ixHp3ESvTfS4WslpOOf/oXR7rvIjFkslkn2i/BLyVvW3iucS7QVQ3XGA3xkNwV1B0MtZbKCHFWAJhbHYIsOG0O9pTImvBG5VehnQvu+PAOLviJmgiCIH50FtanLXpRnW4w5coJcU9eAJn0bIqNiRPhnXmZt44yZBHlT2TATvQ7kW4keZ5F/ELzNwsYEb/NNA4yGOmTbTR8LKl/mY4CNqB8h20c6JgnpKG5tU9vYivaJF9HFhLOreGr3t6BajF33x9iIl/l3GGlPCbIYxy0Wh7EDBbF2flWh2JCvw6Wzu7CUxe1uzARBED86C0qQOdaiPNtizJET5Bcv3+DsuYsWG/6Zl1nbOGMmQQ7KfohBPrJsKcevu9YjOtDHwUZQaaBtn4TxeTFS45OgsSO1UM+E8zWKTKNeSUiZaEY5ip2gWi756tVhhVnw/XLxYJiNeiuz4WM1YnUUZFMcbOQeMcPI1t2YCYIgfnQWnCBzzKI822LMmesRMh9ZrtXWocvwRZxmNo4b8bqlDrrjmxBi2vgkqHbi9sikeNwZ/HnhyixJzOWmmq2JOPEnO/4OF1Okv/1z6zA8YUDZFtsRtaMgS3GM3suV3XBmjbsxEwRB/OgsSEHmcCGebTHmyAny91xDNiOoI7Ey/QBOFFegvtfIxGoS/VX7sESc/k3DFb4Zq+kS0takYZUT4oIlXzMJsrAkD0/4Gq4uDSpVEPbWTsDYX4Y1djufHQXZFEd9HvxnFGT3YiYIgvjRWbCC/L2QE2TO99plLYfgFYVjDZ8sYshH0XmNTNysppmnY0ZBVgVjz8NxJsI3sDr4EOqYOPdcXs3EeSZBDsXRZyyOd7exYZGjb++AcCwJCRI3dbkbM0EQxI8OCbIdzgT5a5lOkAVVNLJvNOGv+vNItBqd8g1R60sHmBi24liEVB526CkME6Oo2R9lI5yCZzT2Vf6F+rsnkaqWymcSZI5vVhXz9xF/3NNjdKIXZxMcbeX8LNlXz+p9wrOTCfCyjiPsAGoGmAC3FCLSVO5OzARBED86JMh2zPTjEu7AfXBf3KdcW4LKG8nFvUwQP6OrpgTHc7YjbVM2jvzeiNds1PqhPs+yeUrwTESBfgxG40c8vXYGu3duw7a9Wlyq6cXIxCTe3stFoMnWFUEWvHegnAmouJbbehZRVoJpRs6P4JkkxTFhQNMNLfbsyEDWrzrcbx+Bcfw9KjKsnp12I2aCIIgfHRJkO2b6+UV34D64L+5Tri2O4BmFHZefomdoagMUF7Dnt/KREmgrVoKPBllX9Hg19HnKdugNHulyEW01heySIFtG4V/w9HiUrI0zP4I6Hjk3WvFmSNqIxhl9q0dJdqLlUS2LrYsxEwRB/OiQIMuQlbMXrW3d4uj2W+A+uC+5NuzxUIdiaXwqViTEIFAtvXDDGYKnP4JjU5CkiUagz/S23xPBKwChmhRoIkPg7TG9uColZoIgCKVCgkwQBEEQCoAEmSAIgiAUAAkyQRAEQSgAEmSCIAiCUAAkyARBEAShAEiQCYIgCEIBkCATBEEQhAIgQSYIgiAIBUCCTBAEQRAK4P/zjNgFgiAIgiDmFxJkgiAIglAAJMgEQRAEoQBIkAmCIAhCAZAgEwRBEIQCIEEmCIIgCAVAgkwQBEEQCoAEWeH4JuxE8IZtCN2+RYR/5mVytgRBEMTChQRZgXhF7hLFN/Hs/0RqyVpZ+DFuw23lfBAEQRALCxJkheGfvAOJ59aJohtzVIPFa4PgsdQTPwX+Q4R/5mX8mCjMzJbXkfNFEARBLBxIkBVE0LptSL60FglnkuGtUePf/H6aFm7DbXkdXlfOJ0EQBLEwIEFWCHyUy4U19lg8/hEkyAqwHNyW1+F1XR0pe8QdRuKmAiRZs/4ogpfJ288VHjGHEM9iidbIH58P1AnHkZx5EbsOX0LaluMsR5mydnNN8LYynNeVIlmjjHgIgvh2SJAVAF8HTjz3P8XRrr0Y/8xGwXJY2/A6vC734cqasseeJgxNTGL8079sMBon0N/dhvP78uATPvcdvUdmPd6xuOoK9sgen008wrMQspbdiKw7ALXMuXrEn8aRil68Ndrmaex9L66fOo2AeciPGY/wvTjSOAkjy1XNid2yNgRBLDxIkBUA35zF14PlpqnNm7jssbfjdXk59yXXhjVmQe64V4asozqR7F/LUKBrwJP+z6yjH8ejk4dl635P5laQj+BUGxO1niok2Imrx9LjONZoZDcow3hafhu7srVYuUWLzXmVKO8YY/kZw6PTx+E1j6IcuPUatJeuIilu/mIgCGJ2IUFWAAmF6xBzZLmDyHLMI2JNQZKI3AjZDPfBfcm1YY1ZkBu0BxyPxRahtI8J1cfn2BY9t529UgTZM7sB71kcLZdOOIiuR4wWul5Wr/8RVs2jIBME8feDBHmeUSfuFEe2fOe0nMiaicmLF5E7Zob74L64T7m2zEwnyJzll96yUeAALmyWBCfy0ENUPKhEWsw+JB+rxJWHL9D04BoirATJb90lHC95jNv1Hai6/wjaMxcQ7WS91SN8F0J2sBHe9WeoaujAvTtVyN20F54ygiy1XYX0BDthDD+AHVeeo+Lq7wizE0a/tZdwjMVSUd+JmuoG/Ka9gEirWPx23WU+/0LrRyashn7UPGB+HjzA5njJZtmFV+z8Dbi8XT7+0HQdco+dR4zd+U2124Hqqic4f+osQpfa2jjLZfiaK/gni0N3NM/GnsOn19ecaxLrrY+V/DnLC2em85e3dR4zQRBzAwnyPBO0fpsooqpIL1mRNeOKIHMf3Bf3KdeWmZkEOfjUC3HauixX6piTrrxjf7+ETteNQaMRfT1v0Fp3E5FMCLlYLD/ehM5hJm5jo+hu60HzayPGmP/Bzgbs+iXLxrdHeC5SijrQZ2T2I8No//MlWvqY/chraIueOQiy1PZrFPxiKxIe4XnQdjIfXQ8QZxJkHktM3jN08FhGR9DZ+hKNL4ZgYD6Hexssguu35yEa9L14OcTshj+iWd/N/q7HLpO4+RxpwSir03H9DPxcGAWL7R6V2h0bHkIHOyd97yiGmY+BzlpsXD7lw1kul0acxfX3LJ7uB1hu16bHskuoMDDfzbcRbjomlxdXz99i62LMBEHMDSTI80zotq2iiP70n9PvrHZFkLkP7ov7lGvLzLRT1qyj3lhhYJ39G5xcNdX58w1No71N2LUmx7bO6tt4PsbEt+0hNiSafexCxJ7HaGedvaGxzCIinEWbHqCdifE7/X2sMu0Q9gjPhia/Bb1cpFlcXy3Iv5SjaZTHUotNK8x2WVh6rAX9zO/7+5csm9WmXUOOOomiDr6WbsSLJ49xbG8BgiNtbazh7Taydt8+q8Qvph3ivN1lBxrQyc6p984Fi7A7yyXP2eobH1mbH1C00bYtv4N6Jqqf8ejkPkuZrCC7c/5uxEwQxNxAgjzPKEmQeYcctbcebUxgh/+8g5iIKRHh4lS+1360m4Vt98dgNDLxXmvbeXOBWSHWG4YuY8p+VzXfLNWLvFR7+z3IqTOKYvU1gsx9b703ynz3sVim7CTb/dhYVIvLv19GlFmQpltD5seXn8SRe6/wluVC3F09ZID+8ROcOXoawVZTurzdLZWsXcNfyHGYVs/C5rvDLKY25JqmjJ3lUrTfVIVudl26r5ycKgvPQdbDcTbiZf4dRtpTeXHn/N2NmSCIuYEEeZ6Zzynrd90vUFPfJvHsJVpfj2KElY/2d+DIhinBkDp/1tE7iOJxnO1iovbXHZv1ZMvxtD/Qwfw1nZN2bHuEn8D5l8z+z9sO674cv+N/fYMgH0PhC/Z3211xKt3aVo6ZBNmMV0IBtp26j3/W9eI1G1Hy+Aa7n2FXqnTc0u6fD7Bq/Qkk2PHL5Zcs/g84v0lqw1kuzb7Ec3r9EMmmmDxidagaYaPe6hL4WsXpKMiun7+7MRMEMTeQIM8z87mpy/DuPTq6+iU6e/Go9hl0l64gwe5RGueieBEVTKTGanSyjwB5xFxDLRf+ivMm+0uSfbUOnnL2WfXi7uavE+TpY7HHVUG2ZpGmADsvtKDbOImR7gdIsmqXC7Uz+DT8vcPSDY6z8zETea6XHTfgUrr0d8CxvzA8MYqy3bYjakdBdv383Y2ZIIi5gQRZASjpsSc5nIuiFlfeMVFrKJVdb/RYUY5G1s4L0xSsR3gh/sntn96Av4y910G9uJnKNUE2jc4tgmzy3Vjm0ks7vkaQOXwqPvmf71lM/dCus2q3pQobdhZijRM0pvX1mQTZI6kMT5jgvyorZDcte7DvyWcY39Vjrd3OZ0dBdv383Y2ZIIi5gQRZAczXi0G+XZD34ehz1rG/a8B6mU1Pfvue4wNrp/q4tHmJr2Ueb2b27xuwQcY+Udcvjs6sBTlafATpIy6m27W99BLujjBfFkHejzw99/0MG6Mcfas1BxCatMdxU1dvFeKtBIw/TpV5vRl3/yhHspPHf5aKo9gR/DOTt7sPx3i7fbWWaebpmFGQmQjvrf8kivCaxOt4xMS55/oZhxkFR0F2/fzdjZkgiLmBBFkBzNerM79VkDnh+R0wTEzgybnjWGQtbMtOQPsXG90N/olMq/ctR2q7Mczs6wvzbKdWE37HvffSNKq1IC9io2a+rt19s9Dyiku+8Sjht17xcR6zIPPyUDGWz2i88Cu8rWNZeRU1g8y2rRLLLD5MNweD7ObAtHlNKt+F9eXD7HxHUXXiiOOLQZafxZWX7LzG2pBreiY44lQna9eImvzDNsLpsfQIDlS/Qn3VbfxiesnKTILM8TvczPyN4I+aboxOvMe5DY62cn7cOX93YiYIYm4gQVYIc/rjErMoyB5Lf8XJ1nEYx0fxrPwu9h/4DZknK1HWxl8xaUT9adsXXXhEnsFvXNDGh/HkVgVy9/2GXaeqUNU7gQ59j8NzyB7R53DtLROTiXG0P3qEs5ce4OqT9+hv07M6toLssfQEi8XIbEfRdOcu9u6/hOxzD3H/BSsbN6DioO35Jl/lU88T6Kx/hMKLOiSZR+0rdbjXz3wbR9FcVY3jJ3TYdeQa8kqeotH0atF67TGLWEvtshwYR1gO7mDPgWJs//UOLte/F28m3lbrEGyydUWQPZb9httMQMW13I5KRFsJphk5P+6cvzsxEwQxN5AgK4i5+vnF2RRkjkf0ceTyH2IYMYkI8214+xIlB/NsRmoW+/gzOPnoAwaNJvtxI1rv/hMx22vQayfInMWby1DRKb1sxMhGgH0tj7BthWlHspUgi755LHd68WZ4atPSaP9L6I7+6vAjEh7RJ3Gs9h0bKXK/ttPi6lW/QVvVh/emGKXz+oLBnr9QdOiEw5q5x7LjyL71Eq+Hv0zZDw/icZkOMVZTyC4Jcjh/FpyP0ifxrFD+neLO/Lh1/i7GTBDE3ECCrDD4KDfx3DpxPTjmqEbcOe2x1BM/Bf5DhH/mZfwYt+G2ro6MvzceS3cjYn0BNCtyXdrp7BVzAJpNBVgWny2769oaPpXsHX8QYZqsGW05HktzEb7+JOJ/2Qe11ZS0HF6xBxCxco/szYPnsj2IWHsKv2z9FREutO2xNAcha09i5foj8/pzlu6cv1JiJogfHRJkBcLXgfnmrMSz/9OyicsefozbuLJmTBAEQSgfEmSF45uwE8Ebtoniy+GfeZmcLUEQBLFwIUEmCIIgCAVAgkwQBEEQCoAEmSAIgiAUAAkyQRAEQSgAEmSCIAiCUAAkyARBEAShAEiQCYIgCEIB/H//4bEIBEEQBEHMLyTIBEEQBKEASJAJgiAIQgGQIBMEQRCEAiBBJgiCIAgFQIJMEARBEAqABJkgCIIgFAAJssL5eYkf/nNFKEL+Z4QI/8zL5GwJgiCIhQsJsgJRLfpZFN/EM8lILVkrCz/GbbitnA+CIAhiYUGCrDB8IwKRqE0RRTfmqAaL1wbBY6knfgr8hwj/zMv4MVGYmS2vI+eLIAiCWDiQICuIwPglSL64Ggls9OutUePf/H6aFm7DbXkdXlfOJ0EQBLEwIEFWCHyUy4U19lg8/hEkyAqwHNyW1+F1XR0pC/5RSEhMtkUTi0Afb1n7uULwjYSGxRIVOL9xWOMdrMGKtTuRmZWBdSs1CPLxkrWbawJT81B0/ghWBMx9PMLiaPE7ExPqfC+D+Tu2LNhH9jhBEI6QICsAvg6cqGWiyEa79mL8MxsFy2Ftw+vwutyHK2vKQvpdDE1MYvzTv2wwGo3o73yMou2xWKSah45+XSn6WVy1B4Jkj88mgsoHwbEs53ER8JY5VyFwFQ6X/om3Rts8jfa34tqhVfCfh/yYEVRLcLh+EsaJL6jeO7fLFYJqEVJ/fyvmYuTREQQ4yYP5O9aQFy57nCAIR0iQFQDfnMXXg+Wmqc2buOyxt+N1eTn3JdeGNebOsqM8D1lZuRJ785B/vhxP+j6xjn4MdQejZOt+T+ZWkKNxsoWJWtclaOxERfDSIK9+mN2gDKDhnyeRsXEtklauw6acQpS3DrH8DKHusAYe8yjKi5MPQqvdjwT/uY1B8NqAq/3STYrRqMfhUBJkgpgtSJAVQMLpZMQcWe4gshzziFhTkCQiN0I2w31wX3JtWDNdZyn4bcb1V0yoBu5hq3qOO3uFCLJq4y28Z3E0axPhaS/Wvmuh62b13lxD6jwK8nyxaGsFPkx8Ru312+hlOXp+MlbWjgSZINyHBHme+TnEXxzZ8p3TciJrJiYvXkTumBnug/viPuXaMjNTZxmrfcFGgW9wfoUkOBG7dLhdUYi1viFYkXsWuvuNaLp9AGFWgqSOy8Sxc9dRXv0EVeXXoD2yDVHe8oLFpz2DVx3AmcsVePCoHpU3LiInaQlUMoIstX0RW4LthFEVju3F93D7YhZC7IRRHZuBPBbL7ZoGVFeWozgvHRFWsajTtMxnHVoHmLAaulFdwfxUFGNToGQTebKNnf97XP5FPv4lKTnIzt2KaLvzs2636s5NFB3agCVetjbOchkaswdXWBwl2XE29hxBpcaqE5Ws3lms85P8OcsLZ6bzd2brLGYzgsofGZWjMI7UIdt/Jc7zG5OOC4iRuTEhQSYI9yFBnmcCE0NEEVVFesmKrBlXBJn74L64T7m2zMzUWQYeeiZOW9/YLHW0CRd62d96lBTpMWgcQ19XJ1qrjiOCdcR8LTZ2TyU6h1jnPGZAV0sz9L3DGGX+B9vKkRFlu6lHUAUgOb8BfUZmPzyI9ud6tLwawehwB7T5tx0EWWq7HSfYudn6iYO2jQtCsUUQeCzRORXo4LGMGNCp1+NZ+wcYmM/h7lvYFCTZqdN1aHjaipcGZjfUD/1TPfu7DBkmcVuUVSXG3355DdQyYmOP2G621O7Y0AfxnJ53GzDMfAy0X8H6xVM+nOUy3HMjrvVL5xNr16bgk4kKFutY40mEmo7J5cXV87fYuhizpY7/HlQNT8Jwf7eYl+Vnu1gMfShKkrElQSYItyFBnmdC1i4VRfSn/5x+Z7Urgsx9cF/cp1xbZqbrLHlHvb70PetoO1GwbKrzFzc0dd9FZsxiG3tV9Ck8H2Pi26xDWrDZhzfC0kvRxjp7Q32eRUQ4nonFaGdi/O5ZEVJNO4QFlR/i9lWh1/iFtfsNghxVgKZRFkuLDhtDpZ3a/HwicqtEoX9fnmHZrDbtGvKiFJz7a4K1O4YXtdeRt20lAp2MGjlCZD4aWbtv6wuRGmgqY6PayJ3l6GTn2nsjHb6mNpzlks8a/FLylrX5CucSbdtSZzzAx4nPqDsYaimTFWR3zt+NmM0EHWhgNypjqNgpzcAI0YVoZX57deugss8hCTJBuA0J8jyjJEHmHfLSbaX4iwnssP4Moj2kTlbq/Edxa5vazt4HW8uHYDQy8Y6165CZwCRe6GH1BqFbay7zRUblGLP/E0eX2tsHIbtqVBSrrxFkHsvmWwbmu4PFMmUn2YZiQ74Ol87uwlKzIE0jyOLxxSk4fOsvvGW54DGNGd5BX30Tp7NXIchKnMV2b7J2DXXIdphW98WmsgEW0yNkmx6XcpZL0T7xIrrYdekqTpkqUy3GrvssZ3ya2GGkPZUXd87f3Zil8qXIa/wM42AlNi8ytxmFE3qWw3flWGt3w0KCTBDuQ4I8z8znlPW7jmeofvhYpKZej9ZeA0ZY+WhfAw4nTE01S50/6+ij7DvveBR2sA65WYtwOVFbfh4dzF/TCWnHtqBKRNELZv/8lMO6L0e9p+4bBFkDbbsUC59Kt7aVYyZBNuMZvBJbDxXhnw9a8WpEEufBjgpkLjWPQE3tPi9GanwSNHakFupZ/K9RZBr1Osul5Gu55KtXhxWmmAS/XDwYZqPeymz4WMXpKMiun7+7MYt1os6geXwS/WzkbL3RLfSYHmMTwyhL97WUifYkyAThNiTI88x8buoy9PeivaNboq0VdX9UoES7B/F2j9I4F8WduM1EavReruwjQILvAdSydvpLt5jsM1Exyu1zHKY4xePry8TdzV8nyNPHYo+rgmyNZ+BK7DhVhS7jJEY6fkOCVbtcqJ3BnxeuzJJucJydj5mIE3+y4+9wMUX62z+3DsMTBpRtsR1ROwqy6+fvbswcab14Ei+qdSi+WDJFmR7vWPlH1q71ejsJMkG4DwmyAlDSY09yOBfFddDxjUh1h2U3Pwmh+WjknfgFaQpWUKXhCrd/fNRhfZLjkfGHuJnKNUE2jc4tgmzyXZ/n0ks7vkaQOXwqfsVvPKaX0MZZtdt0CWlr0rDKCXGm9fWZBFlYkocnfA1Xl8ZuWoKwt3YCxv4yrLGbEnYUZNfP392YBVUKfnvJ7Me/YNT42RE2cjaOPEa21VvDSJAJwn1IkBXAfL0Y5NsFOQRHGlhn3F+OdTKbntQ7KvGBtVO1R9q8JKjCcKxRsk+TsU843yOOzqwFOeoUfwSpH7+l2LXtlYk7w8yXRZBDcfQZ+/vdbWwwrXFa4x0QjiUhQY6burptBVlQRWDnpSrcKc/HCk9HPxxpFGvAlXVSu3n8nKymmadjRkFWBWPPw3GWoxtYHXwIdUycey6vdphRcBRk18/f3Zg9Vl/Fa3Yduy+ukj2+eA8fxX9G3aEwSxkJMkG4DwmyApivV2d+qyBzQvc/gWHCiCe/amzWFgWfJGibP8E4UIMM0/O9nIg8Peu8jag/HmdjrwrOQuU7aRrVWpA92aiZr2t36dZbXnHJN5/Fn24VH+cxCzIvX7KvnpV9wrOTCfCyjiXsAGr4M8cthYi0+DDdHHxgNwemzWtS+SKsuzYoCm7V3miH6V9h8QboXnyGcewRsk3PBIcdesraHUXN/igb4RQ8o7Gv8i/U3z2JVNNLVmYSZI5vVhXz9xF/3NNjdKIXZxMcbeX8uHP+rsbMN4BtuMHz4bj721LHb7e4zm39WBYJMkG4DwmyQpjTH5eYRUEWPBNRoB+DcdyAp9e02LdzB3YeLERZC3/F5CgeH7Z9k5PgtRrFL5hQjw/iyZXTyNm+A5mHLqLqpREdjS0OzyEL6o242sfEZGIM7VXXUKj9Df+s7UV/8308EF9MMSXIgmeSFAsT06YbWuzZkYGsX3W43z7C2nuPigzb81158RWzNaKz+hq0Z3YjwTRqV4XloPIN8200QH/nMo7tzUVG1kEcPVeOZ2+kx6Hq86ZenWnJgfEjy8EZ7N65Ddv2anGp5v9v706fosjyd4H//pkZp2uqWEYWYUBWm02LXdzCrd1aERTBXbQFl8INlxbbjW5E0RY3xB1sBFQUN1wQWQpamRsT82IifnHjzrx87jlZC1VFllR1K5W0z4tPBJz85smTSUU+dTKzinblzcSLswUIt9Z6Esi6wKWoEgGq3Mtt2oUEh8C0UevHm/33dMzKWDotx9n189H2vuQXhpyV221FaZKlhoFM5D0GsoaM1r9f/JSBLOmCUrHyRBNedH+wPxDU9awB3+emOM3U7PXhM1Fa+wSdZmvo9HejqbIIidMOK1/H6BjIUkhmMapbLF82YhYzwGe3j2JR9JRhn0NW+pZjOdmE5+8sY5F6XzTg8Ir0Yf9EQhc0FcU/P8ZbpV/ny+KBiUux83QrXlnHaNmv9+h8eAW789KH3QPXjTci/0gDnrx7P1T/7jnqKgqQ5HAJ2aNAFrPSuSfeKMfxxhb17xR3149X++/BmIPz5Gx9EHd3GJ3WdRX4bQ06RV3L7kzldwYykfcYyBojZ7nppqnK/eDkTUblyWlDvB/GhX+lkD/LNrlM1shaT2fGn5vOPwwxxmxMjg7z6ElnQ3AsJmdkYVJEiOpT147kpWT/8HhEhQWPWCvJsUQbp8I4KQqBDpek1fiFxCE2JlL1zYM+MBKxKTnIyU5HbFjQyOP0C0VkylRkGJN8+u8svdl/rYyZ6EvHQNYgeR9YPpyVLma/toe4XMllssaTe8ZERKR9DGSN+9vEEPw9M1oJX0n+LNvUaomIaOxiIBMREWkAA5mIiEgDGMhEREQawEAmIiLSAAYyERGRBjCQiYiINICBTEREpAEMZCIiIg1gIBMREWkAA5mIiEgDGMhEREQawEAmIiLSAAYyERGRBjCQiYiINICBrHGBEakIN67BxByTQv4s29RqiYho7GIga5A+IEQJX2NxD7LK/qtKLpM1slatDyIiGlsYyBoTFDMTxs1mJXQTVz1GaFY59FGLMC4kWyF/lm1ymRLMolauo9YXERGNHQxkDQlLWYmMHf8rZr9mBCauwZ/+NuWjZI2slevIddX6JCKisYGBrBFyliuDNanwKb6aME01gNXIWrmOXNfTmbIuNAFp6dnOjCkIHx+oWj9adMGTYBRjSQj37TgcBUYakTlrGZbn52J2lhER4/1V60ZbeE4x9uzdiMyw0R+PbkKS8ppJjnZ/u8T2GkuMHP/RNl8IjE4T4zAi0l8bf0siGwayBsj7wPLSs5ztqoXxn8enwhCbC//4fPwlNGfYcrmOXFf24ck9Zd3iM3g3MIj+X//hxGw2o+P+Vez5NgUBeh+c6GefQIcY1+W1EarLPyWdfjwiU8QbkclxCFTZV134dGw48QtemJ2PU29HE46tn45QHxwfG51+IjbUD8I88AEXisJVaz4XnT4AOd+/UI5FT91GhLk5DrbX2PXi2I+2+ULavnZx7FqwdRIDmbSFgawB8uEseT9Y7TJ1+PQjSCv5l/1hrkzTfxCfexd/jZjnVCfXlctlX2rbcGQ7MbZWFSM/v8CiqBgle6tw7dmv4mTVhyvrElTX/ZxGN5CTsO2uCLWHB2F0CRWdvxHF9d3iDcobXP9hG3Lnz0JG1mx8s7IMVU3vxPF5hysbjDD4MJQnZK+DybQGaaGjOwad/zwc7bC8STGbG7AhmoFM9KkwkDXAuKkbiQWPnAJWil5wQQnZmMXX4P91IfQTFyAkvUzMhAeE99BFzHGql33IvtS24ehjJ0ZdyAIcfyKC6s1ZLAoa5ZO9RgJZP/8nvBLjaDSlw881rINnoaJNrPf8GHJ8GMi+ErCoGq8H3uPy8VNoF8fozrYU1ToGMpH3GMg+9rfIdCV0Q7P3O4VrwNerLDPeuWec2qWvwmYiteSfiFl4yald9iHXkX2qbctmpBNjiumBOGE9x95MywkrLq8Cp6rLMCs4CpkFu1Bx7hZun1qLGIdACpq8HJt3H0fVhWuorToG08YlSAhUP+HJy56R09di56FqnK+rR83JA1iZMRF6lUC2bPsAFkY696XTx+Lb8rM4dSAfUS7BGJSSi2IxllMXr+NCTRXKixcjzmEsQXNMos8raHojgrWrDReqRT/V5fgm3FIzaVuz2P9XODRNffwTp67EioJFSHLZP8ft1p7+EXvWz8NEl/uU7o5ldHIhjohxHF4x2ale0umDMH1rjVhvF2aHWPpzd1ykkfbfXa27Mdvo9KHIremFuecKVoRmYa98Y9K6D8kqb0w8DeSh4xEG47Jt2PfjFdSeOYrSVTMQIfrV6SOQumwrdh+vxaXLtThWthLJwc7bG+pjPGLmlOBQ1WVcFrVH9+3AUmOYU63EQCatYiD7WNiUIiVE9VGLncI1ZlEdMrb/G+OCs5zaP0b2IfuSfapty2akQA5ff1OcsPpwcoHlhGU5gTXg8J4GdJr78OzhfTTVbkGccsIcj5TCGtx/J07OfV14eLcRDe3d6BX9dzZXITfB+QEenT4M2SXX8cws6rs70XKnAXef9KC3uxWmklPDAtndyVOnnwxTswyEcnsgyLEkraxGqxxLTxfuNzTgZstrdIk+u9t+wjcRlrqgxRW4fqMJj7pE3bsONNxoEL9XItcabgH5tcr4Ww7NRJBK2LhStrvCst2+d6+VfbrT1oVu0cebliOYO2GoD3fHMtZvPo51WPYnxWWbuvHLUS3G2ndrG6Kty9SOi6f7b6/1cMz2dUILUds9iK5zq5TjMmXXQzGGZ9iToVLrYSBb9uM29mypw4u3z9FwsxEtHQOirQ+3d87G9J2NeK20N4jXlXgzINbvulmivPac+7iF7QXVaDf3o6OtCTcan+G1fI29e4zK/BSn2wvuXlNEvsZA9jHb/eNxIVOdwjVp9XMkr3nl1DYS2Ycyqx7hPvLHAlmeqOeeeCVOWPdRmmg5YckTmPJAU9sZLE+e4FSvT9qOO30ifBsrMCfS1kcgYhafQLM42XfVF9tDRPJLL0eLOFG+vLkHOdYnhHX6EExeXStOph+UE+5vDuSEUtzuFWO5W4H50ZYnteX+xBXUKkH/qirX/rDaR+8hB0zF7nuWUHhw+TiKl2Qh/CNP5OomleCW2O6L+jLkhFvbxKx20rIq3Bf72n5yMYKt23B3LOVVg2mHX4htPsHudOdtBeWex9uB97iyLtrepnZcvNp/L8ZsE7H2unij0ofqZaGW+qQyNIl+2ytmQ+96DL0KZPGG4d5RzIq0jlm8CTU1mJX23pZjmBVhXd8vBrmn5WvzNb6fMbQ9Sx/v0dt1H4cXxtvD1y8uD8db+2HuqsdKhysJ7l5TRL7GQPYxLQWyPCHHLzmBeyJguxt2IslgOWFZTmC9+GlJkEv9eCyqegezWYR3ivPJTQZM+r7HYr1OVMyytQUjt6ZP1P+CTfGu9RFYUdurhNVvCWQ5lgU/dYm+W8VYhuostdGYV1KBg7vyEG8LpI8EsrJ8wlRs+OkeXohjIcfU1/USDRd+xI4V0xHhEM7Kdn8U2+26ghXDLqsH45vKN2JMdVhh/biUu2Op1KcfwEPxd3lYPnWoTT8BeefEMZOXiYfNtIeOizf77+2YLe3xKL71HubOGiwIsG0zAVsbxDF8WYVZLm9YvAvkvmHHI2LDLeW4X1k/0aldN7dSub9/ZV2kvU32IWvbDs0ads/fb8ZR5V53695sp3oGMmkRA9nHfHnJ+mXrTVy4dFVxsb4BTe1d6BHtvc+uY0Pa0KVmywlMnOgTXE66+lSUtYoTcqMJsWqhNmUvWkV/t7dantjW6dOx54Gov7N92H1fKajwyu8IZCNMLZaxOF7OdGekQLbxi8zCovV78MP5JjzpsYRzZ2s1lsfbZqDW7d4pR05qBowucsoaxPifYo911uvuWFr6mmLpq70CmdYx6UIKcL5bzHprVmC8wzhdj4s3++/tmJV1EnaisX8QHWLm7Bh60Zsb0DfQjcrFwfY2pd6rQB66GmMTUHBFtA+IoHZu16UfVN603ClNsrdZ+pBv/Ibvt04/GxUdg+i7sNb+8TZ3rykiX2Mg+5gvH+rq6mhHS2ubRXMTrvxcjcOmQqS6fJTG3QlMp1+GUyKkes8WqH4ESBe8FpfFdjpOLLTWL0d1r6xfOewSp7LcOvv5bYH88bG48jSQHfmFZ2Hp9lo8NA+ip3U/0hy2K4PaHfl54Zp8yxuckcIgbusvYvlLHJhq+T1UBFP3QBcqFzrPIF378Wb/vR2zZLlfPIgHFypQfuDwkMoGvBTtb8V2He+3exfIw4+HJZD78eNi53b3gdyKEpVjKmfxpfLv7HBvfqS/AZGvMJA1QEsfe1Lj7gRmm32Yr2xQffhJF12CW2I7D/ZZLsHq9HNwRNZf3TTs/qRkyP1ZeZjKs0C2zs7tgWztu77Yoy/t+C2BLMlL8Zn75ZgewTTZYbu3D2LOzDmY7sZk6/31kcJAN7EY1+Q93Io54k1LBIouD8DcUYmZLpeEXfvxZv+9HbNOPxX7H4n6/g/oNb8fTsyczT1XscLhW8NGP5DdPFymz8I++TT4rVJEWo/LSH8DIl9hIGuA7T7yaH8xyO8P5ChsvC5Odh1VmK3y0FPQ0hq8FtupLbQ8vKTTx2DzLUv9HJX6tL2PldmZYyAnbJcfQerA/qku2/ZfjtPdoi97IEdj003x+8tTmGe9x+koMCwWE6Mihj/U1eYcyDp9HJYdrMXpqhJk+g3vR7LMYrtwZLZlu8VynxwuM3/MSGGg00ei8FK/OEYnMSNyPa6IcH58aMawKwqu/Xiz/96O2TDjKJ6Kv2PbgemqyycUyln8e1xZH2NvG/1Afo/La6KcaiVd5CbUi2PY+dO39raR/gZEvsJA1gBffXXm7w1kKXrNNXQNmHHtO6PTvUXd+AyYGn+F+c1F5Fo/3yvFFTeIk7cZ9VsmO9XrI/NR89JyGdUxkP3ErFne135YMdd+D1A+fJa6o0n5OI8tkGX7xNX1ou1X3NyWBn/HscSsxUX5meO7ZZhk78P65uC1eHNgfXjN0h6A2cc6xf52obYoadjlX92Eeah48B7mvjqssH4mOGb9DbHdXlxck+AUnDq/JKyuuYf6M9uQY/2SFU/CIDi/VvT3Fj+fbUDvQDt2pQ2vVevHm/33dMzyAbB5J+XxGP70t32dkFXKfW7Hj2WNdiArl9lbxRsMhy+zkR+xm1FhebDw5IKhzyN78jcg8gUGskaM6j+X+ISBrPNLR2lDH8z9XbhxzITVy5Zi2boyVN6VXzHZi6sbnL/JSec/A+UPRFD3d+LakR1Y+e1SLF9/ALWPzGi9dXfY55B1QfNx9JkIk4E+tNQeQ5lpP3643I6OxnM4r3wxxVAg6/wyLGMRYXr7pAmFS3OR/10FzrX0iO29QnWu8/5mHXgias24f+EYTDtXIc06a9fHrETNc9G3uQsNpw9hc1EBcvPXYdPuKtx8bvk4VH3x0Fdn2o+B+a04BjuxatkSLCky4eDFduXNxIuzBQi31noSBrrApagSAaqETNMuJDgEpo1aP97sv6djVsbSaTnOrp+PtvclvzDkrNxuK0qTLDWjHcjyKkrD3U68aaxGaVEeFuZugqn6gXjTMYg3Vzc5fYmNJ38DIl9gIGvIaP37xU8ZyJIuKBUrTzThRfcH+wNBXc8a8H1uitNMzV4fPhOltU/QabaGTn83miqLkDjtsPIRFcdAlkIyi1HdYvmyEbOYAT67fRSLoqcM+xyy0rccy8kmPH9nGYvU+6IBh1ekD/snErqgqSj++THeKv06XxYPTFyKnadb8co6Rst+vUfnwyvYnZc+7B64brwR+Uca8OTd+6H6d89RV1GAJIdLyJ6EgZyVzj3xRjmON7aof6e4u3682n8PxhycJ2frg7i7w+i0rqvAb2vQKepadmcqv49+IIs+0meg5OJzZRvKvvSKN1QnipDk8h+6PPkbEPkCA1lj5CxXXnqW94MTVz1GaFY59FGLMC4kWyF/lm1ymayRtZ7OjD83nX8YYozZmBwd5tGTzobgWEzOyMKkiBDVp64dyUvJ/uHxiAoLHrFWkmOJNk6FcVIUAh0uSavxC4lDbEyk6psHfWAkYlNykJOdjtiwoJHH6ReKyJSpyDAm+fTfWXqz/1oZ82/lGLDyzUxwtBFp6SmYoHIvnUjLGMgaJO8Dy4ezjMU99oe5XMllssaTe8ZEf2Sc8dIfBQNZ4wIjUhFuXKOEryR/lm1qtURfIgYy/VEwkIloTGMg0x8FA5mIiEgDGMhEREQawEAmIiLSAAYyERGRBjCQiYiINICBTEREpAH/4xeXByIiIvItBjIREZEGMJCJiIg0gIFMRESkAQxkIiIiDWAgExERaQADmYiISAMYyBoXZCxFxKxKRH1zXiF/lm1qtURENHYxkDXIf1KBEr7G7z4gq+y/quQyWSNr1fogIqKxhYGsMSGZu2Dc+n+U0E1c9RihWeXQRy3CuJBshfxZtsllSjCLWrmOWl9ERDR2MJA15O8zjiFj5/+FsdiMwMQ1+NPfpnyUrJG1ch25rlqfREQ0NjCQNULOcmWwJhU+xVcTpqkGsBpZK9eR63o6UzZM3oD0b0qR4WjuJkQmqtePFkPyeqSKsSQZ1Zf7QlDaFmQvP4C8DQcxZ+EWcYyWq9aNtsglldhbcQLZxs8/HtvrJTktX3X5aAnK/E68Vjdj4iRt/A2IPjUGsgbI+8Dy0rOc7aqF8Z/Hp8IQmwv/+Hz8JTRn2HK5jlxX9uHJPWVD4W28GxhE/6//cGI2D6CjrRl7VxdjfOzon/QMy+vxUozrSmmh6vJPyRCbj6hZ4o3I7LUIUtlXQ+oObKxuxwuz83Hqe9WO49t3IMwHx8fGEFuEjbcGYRbH6uLWVao1n5Lt9XLdtFZ1+WjJOPJS7PNTlE5jINMfEwNZA+TDWfJ+sNpl6vDpR5BW8i/7w1yZpv8gPvcu/hoxz6lOriuXy77UtuHIdoJtPVuJ/E0VihXfVaK04jqudbwXJ71+1G3boLru5zS6gbwR25tFqD2uRZpLuBrit2DzLbN4g9KNG1WnkLfChKyFJiworkFVa584Pn2o27EF/j4M5fBFx2A6eBQZkz//GBjIRKODgawBxi0fkFjwyClgpegFF5SQjVl8Df5fF0I/cQFC0stg3DwgvIcuYo5TvexD9qW2DUcfO8EaUvbgxDMRVG/vYEnS6J74tBLIfiuu45UYx92DW4eFriHZhIp2sV5HHab7MJBHEwOZaHQwkH0sKHWbErqh2fudwjXg61VK+8S5Z5zapa/CZiK15J+IWXjJqV32IdeRfapty2akE+yUgy/Eie8N9i2wnPgmrb+E6vM1mJO8Gtmba3Dk0gPcPn8McQ6BFDL7ILYcvopT9a2oPVcH0859SHJzv9UQm4eopWKGd/wmaq+34uzpWhR8UwQ/lUC2bLsWi9Oc+zLErsXSI3dQffR7xLgEY8isg9gsxlJdfx8XL1zHftM+THIYS0jeGdHnPTS9FcHa1YGL50U/589jQaqlJnHfE7H/XTj0rfr4oxdXoGDzXiS77N/QdltxofYa9m7fheh45xp3xzJ25hH8IMZRsanYqV6Sl9dn7r6trDc3xdKfu+MijbT/6rXux6z2ehnaj1VIW3sK5TX3xPp12LZlJyLF38MQWyjaf8KeU3dx6Vojjh+qQEqyu2ORj7i8Knz/cxOuiNpjR6qxbO7wWy8MZPqjYyD72N9nnVRCVB+12ClcYxbVIWP7vzEuOMup/WNkH7Iv2afatmxGCuTI7Q/Eia8flQWWE5/lRPgIFRVt6DSb8ezxczRd+RGTlBNvPqZsuY373SLc+nrR1vwYjU/N6BP9d96/jrxpzg8CGWILMHVPK56ZRX1PN1p+eYS7z0R9z1OY9twcFsjuTsKG2GKY7os+Hp7HZGsgy7EkF99EqxxLbw/uNz3CrQfv0CX67G6/bg/ckMJLuN7QjkfvRF33WzQ2tInf65FnDbfxG++iV6zTenwnQlzCXo2y3U2W7fZ1v0Or2KeG9l50iz7e3L+M+VOG+nB3LOPjduH4KzGetvOY4rJNQ+JBVHeJvhtPIda6TO24eLr/9loPx6z2erFs/yH2ljXjRVcnGhoeo+WV5XbH7QMmzDzwGK9Fuzy2DeLvK+93dzVUKa8Z5z4eYMfmm2g3/4qO9nbcbH6D1/K10f0SP24sdrpC4e61QPRHwUD2Mdv943EhU53CNWn1cySveeXUNhLZh+xrpPvIHwtkeaKeX90lTnzPsW265cQnT4Tygabe9tvIm7nSeZ0Zp3CnT4Rv8yXMS7f1kYe4wqtoESf7rluV9hCRAsTYWsQJ92XDOUy3PiFsiF0BY8ldcVIWJ2Ixrt8cyNOqcLtXjuUyvsm01eUjfvNddIh+X507aH9Y7aP3kBO2YU+rDBczHly7is1FpYj8yJO9cru3xHZf3KzBNOsT4nK7iWuv477Yp/bT++zB7u5YymM24+Rbsc3X2DPfeVsh6xpEqL5H3bbV9ja14+LV/nsxZveBLIK+tQ6z06zrJ5fC9MuA0t77QLSnWtvj1yCvVr6m3uHw0qHxWvr4gN6u56hYtc4evgFTD+FE268wv2tBQbprPQOZ/rgYyD6mpUCWJ+SEono0i4Dt/uU0kuMsJz7LidCMqiLX2W4+lpzrg9kswnuW80lSBkymsl43KnKH6vMuyIel2lGc41pfiJVXzEpY/ZZAln0vOtsr+n4mxjJUZ6ldg/l7LuPQ94eQYAuZj91DlsunbMPGs0/wQhwL5enqd11ouHoNOzftQKTDJV253YU1Yrtd97By2GX1fCw40y3G1IwC6yVjd8dSqf+mFm3i79J2ZOiWgyF2JfIv9YsZr+h/2Ex76Lh4s//ejtl9IPcP24/IHQ+U41W3vcip3ZBfr9yXr9vm/LeVtW3HTQhw+Rv4L61Du6hvrRj6mlh3rwWiPwoGso/58pL1y7YHuFjfbHHzEZqe9qJHtPd2tGLjvKETreVEKE70w0JxC3Y9FKF277TT/WT78jk/o1X0d3u35YltQ+xW7H0k6n85Ney+rxSy5d7vCOTNKHsgfm8+43RZ1J2RAtnGP60US7afww9X2vFUzCjl+DrbbiIvx7Lcvt1fzmP63K1IczHt0CMx/tfY+41lG+6Opa0vZZ+eXkK2dUyGlArU9ohZ74XDCHYYp+tx8Wb/vR2z+0AeuopiM37zPdH+XgS1c7vtzcadvRvtbZY+5Bu24eM1xJpw5OUg+uqP2j+W5u61QPRHwUD2MV8+1NX18hVaH3ZY3G9H3eWbqDh4BGkuH6VxdyI0xB5AtQipvosVqh8BMiQfw2WxnZfVe631By31Fyrgp1ZvnUX9tkD++FhceRrIjgKMpVi27y7azIPoaTuPDIftyqB2R17CPbvB8gZnpFCZtLtdLO/CwcWW38NEwHUP9KJylfNM1LUfb/bf2zG7D+Th+2EJ5F/xU6Fzu/tAVj8WhtgN2Cb/Pg731Ec6dkRjHQNZA7T0sSc17k6EtlmM+foJ1YefDJlVuCW288B6CdYQW4YfZP2NkwhVqfdf16A8TOVZIFtn5/ZAtvZ9q9KjL+34LYEsyUvx2T+8EmPqgGm2w3bv1mLesjLMdMNovb8+UqgYMipxTQT+k8oy8aalEKuvvYf5ZT1muTz57NqPN/vv7Zg/byC/sc/EHRliS1AuP17WWIUo6/6MdOyIxjoGsgbY7iOP9heD/P5AXo1Nd8RJ8+V1zFV56Clk9R28Ftu5sMXy8JK8l7mlUdS/uo55KvXpFR3K7MwxkJOUjyC9xYHFLtuOP4gzPaIveyCvQXGD7Psm5icM7zvIuBbRGYXDH+pqr0WqQ4DJj1MtP96IMz9XIdslBG3ilVlsD35YLre7Gpvldp9dtl9m/piRQkXeSy+q/1UJ4Znpx1Enwvnx8Z3Drii49uPN/ns75s8byB9wuWToYTUbQ/pJ1It97zy739420rEjGusYyBrgq6/O/L2BLMWWtKJrYADXdm9xejDHkLgVpntidtf5C5Y7fN/yJFMbukV9fZnzR1r80r7H2VeWy6iOgRwgZs3yvnbbj2X2e4nywaO0/e3Kx3lsgSzbo5WxvMetfd8h0HEsWUdxsVPUNtcg0d6H9c1Bp3hzYH14zdKeh7lV3WJ/e1G7deOwy7+GKbtw5JHYr75mFFg/Exy3/b7YrhkXSzY4BachfiPWXniC+tpTmGb9khVPQiVkQ6Porwc/X2xD78Ar7J43vFatH2/235sxf85AVi6PP7yEbIcvoZEfjZtZKfvvRmXB0OvZk2NHNJYxkDViVP+5xCcMZEP8d9jW1A9zfy9uVp3BmrX7sXxbDSqb5VdMmlG/w/mLLgyTdmK/DLT+blz7qRoFq/cjb3statsH0NrweNjnkA1Ju3HshQiTgX601NVh18HzOHrtFTqaG8Q6zoFsiN8qxiI/89qL26fPoGjNQazYfQnnHoi2/i5Ur3Pe3+yj8tLzAO7X16HsQAUybLP2rAqc7RB9m3vRWHsBW7ZWIG/jMRQfvoFb1q8WrTdttoe1ZbviGJh7xDE4jcK15fj2u9M4VP9KeTPx4kKF8mUZstaTUDEk7scpEaBKWLXWIMkhMG3U+vFm/70Z8+edIb9FQ3M33jTfxLath7B43UmYzr8QbxYG8ebGSaeHBT05dkRjGQNZQ0br3y9+ykCWDElbUCD/EUOPNURE310vHuHwumKnmZq9PnUnttW9RqfZWt9vRtOZH5D87UXloy6OgSxNWFCJ6vuWLxuRT/A+u1uHJZnWJ5IdAlnpW47ldDuedw89tNTb8QgVm74b9k8kDEnbsPnyS+Xk73pZPGj6fphqn+GVdYyW/fqAzsf3sGf91mH3zA2JW7Dip0d42v1hqL67E1crK5DscAnZk1CRVwDmV8tZ+iBulql/p7i7frzafw/H/HkDWfQxfydK698o21DG0NuLhmrxenD5djFPjh3RWMZA1hg5y5WXnuX94MRVjxGaVQ591CKMC8lWyJ9lm1wma2StpzPjz80Qvwpxc0thzCzw6Eln/+S1MH5TisTUFapPXTuSl5IDU9chxpg/Yq1kiC9A7NxtSJ22GkEOl6TV+KesRVxWoeqbB7/EQsTN2o5pi75DnAfbNsSvRNSsbciau9Gn/87Sm/331ZgdA1a+CQkRb7IyvilGuMo9cKIvAQNZg+R9YPlwlvG7D/aHuVzJZbLGk3vGRFrEGS+RMwayxgUZSxExq1IJX0n+LNvUaonGEgYykTMGMhH5BAOZyBkDmYiISAMYyERERBrAQCYiItIABjIREZEGMJCJiIg0gIFMRESkAf/zV0MAiIiIyLcYyERERBrAQCYiItIABjIREZEGMJCJiIg0gIFMRESkAQxkIiIiDWAgExERaQADmYiISAMYyCryVxahqbkNz150DtPc+hjzFy5RXY+IiOi3YiC7SDFm4Onz16i9eBWmXeXDXL56C4+fvMTseQtU1yciIvotGMgu1m3YosyEJ4tgjpuUPEzKlEzU1d/Co/YOzJg5V7WPzyU8pxh79m5EZpi/6nIiIhq7GMguSkrLlEBWC2ObKalZuH6j0elStqv2p69w4VI90jOmqm7HWzr9RGyoH4R54AMuFIWr1hAR0djFQHbhSSBLaSJo1S5p2+zacxC3G5vR+uApIqNiVbflrQnZ62AyrUFaKGfIRER/NGMikJOnpCE4dORZoayRtWrLPOVpIHsiZ9pspa+CgrWq2yIiIrIZE4F8+uxFVFadw4TwSNXlklwma2St2nJPfcpAlmRfsk+1bUlxeRU4VX0ACyOdZ706fSy+LT+LUwfyEaW3LHNXS0REY9+YCOSUKRm4eOWm21C2hbGskbWuy73hLpDTMnOwYdNWhfzZdbk7IwVy2r52mAdasHWSayBPhql5EObWciRbA9ldLRERjX1j5h6yu1D+lGEsqQXy3PmL0frwqdIuyZ9lm2ONOwxkIiLyxJh6qMs1lD91GEtqgXzxynXcbmjGpIRkhfxZtjnWuMNAJiIiT4ypQJYcQ/lTh7GkFsgPHj3Hrt0H7DXyZ9nmWOMOA5mIiDwx5gJZsoXypw5jiTNkIiLyhTEZyJIM4k8dxpJaIPvmHnIqyloZyEREX4oxG8ifi1ogS5/rKeuE7c0iZDuwf6pLIPsvx+luBjIR0ZeCgezCXSD/ViMFsl/uz+gZGMTDirkItAavTh+E1B1N6BLtDGQioi8DA9nFSP9cwhuyD9mX7FNtW5IuaD6OPhPBO9CHltpjKDPtxw+X29HReA7n2xjIRERfCgayi5H+/aI3ZB+yL9mn2rZsQjKLUd3SjV45Ix74Fc9uH8Wi6Cl8qIuI6AvCQFaRv7IITc1tyuz295B9yL7UtuFKpw+Af3g8osKCobcGMBERfTkYyERERBrAQCYiItIABjIREZEGMJCJiIg0gIFMRESkAQxkIiIiDWAgExERaQADmYiISAMYyERERBrAQCYiItIABjIREZEGMJCJiIg0gIFMRESkAQxkIiIiDWAgExERaQADeazxC0DsggRk7Z2OKZszETYlUr2OiIjGFAayxgVGpCLcuAYTc0yK2G/ykXN4FsJnTETi6inKz0mFRgRMCFZdn4iIxgYGsgbpA0KU8DUW9yCr7L9OppafV0L4zyE6/Cn0KwQmhSBz7zRkl0/HxJlxygxarU8iItI2BrLGBMXMhHGzWQnfxFWPEZpVDn3UIowLyVbELJunBPKfQsbZjZvgh+gFcUq7cUum6CNMtW8iItIuBrKGhKWsRMaO/xUzYzMCE9fgT3+bMszEBdnDAtnGMNEfqSWZyPl+FsLSo1S3QURE2sRA1gg5M5ZhnFT4FF9NmKYaxtLHAtniL4hdmoB0U47qdtToJiQhLT0bydEhqsuJiOjzYyBrgLxnLC9Ty5mxWhj/eXwqDLG58I/PR9TiGR8P5FDvAlmnDxAz6hfo//Uf6KnbiDC9v2odERF9XgxkDZAPcMl7xmqXqcOnH0Fayb/sD3Vll59zG8ghmTORvmOmV5esdf7zcLRjUAlks7kBG6IZyEREvsBA1gDjpm4kFjwaFsbRCy4oIRyz+Br8vy6EfuICfF24SiWQ9YhamKS0Z5cXefVQV8CiarweeI/Lx0+hfWAQd7alqNYREdHnxUD2sb9FpiuhG5q93ymMA75epbRPnHvGqX3iN1lK8P451PKxJ//kvyNz73Rk75+JSSvXi3X+n9Kn2rZc6fShyK3phbnnClaEZmFv2yDMrfuQrHLZOi6vAqeqyzAreDxi5pTgUNVlXL5ci6P7dmCpcfgbAG/riYi+dAxkHwubUqQErz5qsVPwxiyqQ8b2f2NccJZT+/jUDCWQw2ZNQsKadOXnhNU5+GtkqtKH7Ev2qbYtV7rQQtR2D6Lr3CoEiRCesushzAPPsCdjeCCn7WsXy25he0E12s396Ghrwo3GZ3htFiH+7jEq81NgcAhyb+uJiL50DGQfs90/Hhcy1Sl4k1Y/R/KaV05tNlGLspG1byYmb5mO4PR0e7vsQ5lViz7VtuUqYu119A70oXpZqPK7LqkMTQODaK+YDb1LWFoC9j16u+7j8MJ4e5j6xeXheGs/zF31WBnpGsie1xMRfekYyD72WwLZHW8CWaePR/Gt9zB31mBBgCUYdfoEbG0QM9iXVZjl7xyWMmDlg19th2bBzyWs/WYcVe4/t+7N/s31RERfOgayj3l7yfpjvLlkrUvYicb+QXScXOwUmNGbG9A30I3Kxc7fjW2Z8XaiYpZzuEo6/WxUdAyi78JaBFr78raeiOhLx0D2MW8f6pK+CpuJ1JJ/ImbhJad22Ydcx5OHuiz3iwfx4EIFyg8cHlLZgJei/e3ZAuW+sq3eErCtKJmkFrAJKL0rHwgrR4pTIHteT0T0pWMga4A3H3sKSS+DcfOA8B66iDlO9bIP2ZfaNhzp9FOx/5EIxP4P6DW/H07MnM09V7EizDWQ1R/40umzsE8+oX2rFJFOgex5PRHRl46BrAHefDFIpuk/iM+9i79GzHOqk+vK5Z7cPzbMOIqnYhbcdmC66vIJhVfQPfAeV9bH2NssAfsel9cM/8IRXeQm1JsH0fnTt/Y2b+uJiL50DGQN8OarM/8SmjNsuVxHriv7kH2pbcNGpx+PeSc7RVg+we509dmpLmQVzncPou/WNkQ7zHiVb/NqrUBm0NB6On0YZlQ8Fv114uSCoc8Xe1tPRPSlYyBrhKf/XMKVrJXryHVlH2p9O9IFLkVV58fv3ypfGHK2T4RmK0qThgLZPNCBhrudeNNYjdKiPCzM3QRT9QN0idn2m6ubEOPQn7f1RERfOgayhnjy7xcdyRpZK9eR66r16So4r1YJxLs7jKrLbQK/rUGnqGvZnan8bgnYFmxNn4GSi8/xTixTZsC9XWg4UYSk8c7h6m09EdGXjoGsMXKWKy89y/vBiaseIzSrHPqoRRgXkq2QP8s2uUzWyFpPZsa/lz1gJ/krl72Do41IS0/BBOtnmH9vPRHRl46BrEHyPrB8OMtY3GN/mMuVXCZrRrpn/Kk4Bqzaclfe1hMRfekYyBoXGJGKcOMaJXwl+bNsU6v9nBjIRESfFwOZPMJAJiL6vBjIREREGsBAJiIi0gAGMhERkQYwkImIiDSAgUxERKQBDGQiIiINYCATERFpAAOZiIhIAxjIREREGsBAJiIi0gAGMhERkQYwkImIiDSAgUxERKQBDGSN08q/XyQios+LgaxB+oAQJXyNxT3IKvuvKrlM1shatT6IiGhsYSBrTFDMTBg3m5XQTVz1GKFZ5dBHLcK4kGyF/Fm2yWVKMItauY5aX0RENHYwkDUkLGUlMnb8r5j9mhGYuAZ/+tuUj5I1slauI9dV65OIiMYGBrJGyFmuDNakwqf4asI01QBWI2vlOnJdT2fKutAEpKVnIy0lBv56f9UaRwETjUp9aly46nJfse1HYuR41eWSTh+OOLmvSVEwWPfVk/WIiEYbA1kD5H1geelZznbVwvjP41NhiM2Ff3w+/hKaM2y5XEeuK/vw5J6ybvEZvBsYhLn3OgojPh7IOn0U1lwdQP+v/8DbqmWqNb5i24/rxbGqyyWdfjlOm8W+1hcj1BbIHqxHRDTaGMgaIB/OkveD1S5Th08/grSSf9kf5so0/QfxuXfx14h5TnVyXblc9qW2DUf2QBbulKao1tjoEk242z/IQCYi+swYyBpg3NSNxIJHTgErRS+4oIRszOJr8P+6EPqJCxCSXiZmwgPCe+gi5jjVyz5kX2rbcGQLJBmy5keHkW5QnyXr9AHIPvhUqWMgExF9XgxkH/tbZLoSuqHZ+53CNeDrVZYZ79wzTu3SV2EzkVryT8QsvOTULvuQ68g+1bZlYwmk97hz5x76BrpwbH6Qel3AYvz4ahC9jb+gQYSaWiAHpeSiePdxnLp4HbWnf8Se9fMw0d854OPyKnCqugyzgoORMH8TdlScw4Url1B5eBvmxjrfx7XUHsDCSOc+dPpYfFt+FqcO5CPKi2BlIBPRWMFA9rGwKUVKiOqjFjuFa8yiOmRs/zfGBWc5tX+M7EP2JftU25aNLZBPFRWh9p0I2tpChFjDytGElZfRNWDGzyvWKaHmGMg6/XgkrahGq1i/791rtNxpwJ22LnSLoHvTcgRzJwz1l7avHeaB29i1vhZP371Ram+1vlFC0fz2BoriXGtbsHWS83h0+skwNYv61nIkM5CJ6A+IgexjtvvH40KmOoVr0urnSF7zyqltJLIPZVY9wn1keyAvDcKCn7pgNjdgY4xrAE7C5lvvYX51CvMCLKHmFMiTSnCrdxAv6suQE25bJwiTllXhvqhtP7kYwdYAtISsmGk/PIUlcZYZsU4fjKR1degQ7R0nFtufgGYgE9GXioHsY74NZH8Ysg/jkQin5l0ZzjWp5bgv2h/unwa9NdRsgSxnxwt+FEHedQUrhl1aDsY3lW9EyNdhxXjHkO1HTf4El9qp2P9YhGWjCXEMZCL6wjGQfcynl6xFIOv0ySht/ADzsxOYbr33KwN31tFXIlSb8Z0IRluoDQWyEaYWEXJ3ypGTmgGji5yyBhGqT7En3TFk22BKcQ3ZcKyrF/10nMA0BjIRfeEYyD7my4e6ZCDL3yOK6tE90Ct+D7MsD87Dma5BdF1aiwkixIYH8jKc6rE8pe2OeeCDmBFbLk+7D9kwrK6zBPJ0BjIRfeEYyBrgm489DQWyLkgE7JtBdF/dhAgRWhPX30DvQBcqF1u+ZGR4IM/BkQ4RcrcPYs7MOZjuxuRIy/Y+TSCnoqzVJZBnHVfuQbfsdr7c7kgXthFXRU3v+VX2byVjIBORFjGQNcB2H3l0vxjEIZD1gZh2+AXM/a0oSZyMHU0i+NqPIMvPttw1kKNRfEvWVCDTGnIf400gJ2xvFrUd2D/VpdZfjKHbJZBD1+FKvwhbMfuVbyQc622CltTglQjfX0xGexsDmYi0iIGsAb756syhQFbaUspwT4Rb+80GtIuwatwxZWiZSyBLMWIW3TXQi4trEqB3CEOdXxJW19xD/ZltyAmytHsTyH65P6NHbP9hxVwE2oJXH4TUHU1iey6BrI9H0eVu0XcXzq8Tb0pcQtkveilOPvoAc999bDMG2tsZyESkRQxkjRjVfy6hFshi1ruu/lfL/d/eG1jt8PS0WiDr/NJR2tAHs/ktbhzbiVXLlmBJkQkHL7YrgfribAHCrQHpTSDrgubj6DPRNtCHltpjKDPtxw+X29HReA7n25wDWamPLsC5DhG6A/1ou1qFPdu3oGj9dpRVXMC9t5Z+bmxNh5/jOgxkItIgBrKGjNa/X1QLZClo2Tl0iqB6fToP4x0DTCWQlfbxRuQfacCTd++HHuZ69xx1FQVIChha35tAlkIyi1Hd0o1eOSMe+BXPbh/Fougpwx7qsjFETMeGk7/g2bsPQ+PoH0BHSy1K5yc4hbHEQCYiLWIga4yc5cpLz/J+cOKqxwjNKoc+ahHGhWQr5M+yTS6TNbLW05nx56LzC0VkylRkGJMQPn7o0vDvIb9H2z88HlFhwU6XxD9GZwhBeEI2srOMmBjMf61IRGMLA1mD5H1g+XCWsbjH/jCXK7lM1nhyz5iIiLSPgaxxgRGpCDeuUcJXkj/LNrVaIiIauxjIREREGsBAJiIi0gAGMhERkQYwkImIiDSAgUxERKQBDGQiIiINYCATERFpAAOZiIhIAxjIREREGsBAJiIi0gAGMhERkQYwkImIiDSAgUxERKQBDGQiIiINYCATERH5XAD+P9+m4tMztLOUAAAAAElFTkSuQmCC;" vertex="1" parent="1">
          <mxGeometry x="50" y="40" width="323.34" height="440.91" as="geometry" />
        </mxCell>
        <mxCell id="TeoRIYG-eI9M2ClnVOOX-16" style="edgeStyle=orthogonalEdgeStyle;rounded=0;orthogonalLoop=1;jettySize=auto;html=1;entryX=0;entryY=0.5;entryDx=0;entryDy=0;" edge="1" parent="1" source="TeoRIYG-eI9M2ClnVOOX-2" target="TeoRIYG-eI9M2ClnVOOX-3">
          <mxGeometry relative="1" as="geometry" />
        </mxCell>
        <mxCell id="TeoRIYG-eI9M2ClnVOOX-2" value="ui layer" style="whiteSpace=wrap;html=1;aspect=fixed;fillColor=#d80073;fontColor=#ffffff;strokeColor=#A50040;" vertex="1" parent="1">
          <mxGeometry x="580" y="40" width="80" height="80" as="geometry" />
        </mxCell>
        <mxCell id="TeoRIYG-eI9M2ClnVOOX-17" style="edgeStyle=orthogonalEdgeStyle;rounded=0;orthogonalLoop=1;jettySize=auto;html=1;" edge="1" parent="1" source="TeoRIYG-eI9M2ClnVOOX-3" target="TeoRIYG-eI9M2ClnVOOX-4">
          <mxGeometry relative="1" as="geometry" />
        </mxCell>
        <mxCell id="TeoRIYG-eI9M2ClnVOOX-3" value="service" style="whiteSpace=wrap;html=1;aspect=fixed;fillColor=#6a00ff;fontColor=#ffffff;strokeColor=#3700CC;" vertex="1" parent="1">
          <mxGeometry x="850" y="40" width="80" height="80" as="geometry" />
        </mxCell>
        <mxCell id="TeoRIYG-eI9M2ClnVOOX-18" style="edgeStyle=orthogonalEdgeStyle;rounded=0;orthogonalLoop=1;jettySize=auto;html=1;" edge="1" parent="1" source="TeoRIYG-eI9M2ClnVOOX-4" target="TeoRIYG-eI9M2ClnVOOX-5">
          <mxGeometry relative="1" as="geometry" />
        </mxCell>
        <mxCell id="TeoRIYG-eI9M2ClnVOOX-4" value="repo" style="whiteSpace=wrap;html=1;aspect=fixed;fillColor=#e3c800;fontColor=#000000;strokeColor=#B09500;" vertex="1" parent="1">
          <mxGeometry x="1200" y="40" width="80" height="80" as="geometry" />
        </mxCell>
        <mxCell id="TeoRIYG-eI9M2ClnVOOX-5" value="db&lt;div&gt;in-memory as Map&lt;/div&gt;" style="whiteSpace=wrap;html=1;aspect=fixed;fillColor=#6a00ff;fontColor=#ffffff;strokeColor=#3700CC;" vertex="1" parent="1">
          <mxGeometry x="1480" y="40" width="80" height="80" as="geometry" />
        </mxCell>
        <mxCell id="TeoRIYG-eI9M2ClnVOOX-6" value="&lt;div style=&quot;background-color:#1e1f22;color:#bcbec4&quot;&gt;&lt;pre style=&quot;font-family:&#39;JetBrains Mono&#39;,monospace;font-size:9.8pt;&quot;&gt;&lt;span style=&quot;color:#cf8e6d;&quot;&gt;public interface &lt;/span&gt;ProductService {&lt;br&gt;    &lt;span style=&quot;color:#cf8e6d;&quot;&gt;public boolean &lt;/span&gt;&lt;span style=&quot;color:#56a8f5;&quot;&gt;addProduct&lt;/span&gt;(Product product);&lt;br&gt;    &lt;span style=&quot;color:#cf8e6d;&quot;&gt;public &lt;/span&gt;List&amp;lt;Product&amp;gt; &lt;span style=&quot;color:#56a8f5;&quot;&gt;getAllProducts&lt;/span&gt;();&lt;br&gt;&lt;br&gt;}&lt;/pre&gt;&lt;/div&gt;" style="text;whiteSpace=wrap;html=1;fillColor=#6a00ff;fontColor=#ffffff;strokeColor=#3700CC;" vertex="1" parent="1">
          <mxGeometry x="460" y="170" width="370" height="130" as="geometry" />
        </mxCell>
        <mxCell id="TeoRIYG-eI9M2ClnVOOX-13" style="edgeStyle=orthogonalEdgeStyle;rounded=0;orthogonalLoop=1;jettySize=auto;html=1;entryX=0.5;entryY=1;entryDx=0;entryDy=0;" edge="1" parent="1" source="TeoRIYG-eI9M2ClnVOOX-8" target="TeoRIYG-eI9M2ClnVOOX-12">
          <mxGeometry relative="1" as="geometry">
            <Array as="points">
              <mxPoint x="1305" y="610" />
            </Array>
          </mxGeometry>
        </mxCell>
        <mxCell id="TeoRIYG-eI9M2ClnVOOX-8" value="&lt;div style=&quot;background-color:#1e1f22;color:#bcbec4&quot;&gt;&lt;pre style=&quot;font-family:&#39;JetBrains Mono&#39;,monospace;font-size:9.8pt;&quot;&gt;&lt;span style=&quot;color:#cf8e6d;&quot;&gt;public class &lt;/span&gt;ProductServiceImpl &lt;span style=&quot;color:#cf8e6d;&quot;&gt;implements &lt;/span&gt;ProductService{&lt;br&gt;&lt;br&gt;    &lt;span style=&quot;color:#7a7e85;&quot;&gt;//What is a service?&lt;br&gt;&lt;/span&gt;&lt;span style=&quot;color:#7a7e85;&quot;&gt;    //A service is a class that provides business logic to the application.&lt;br&gt;&lt;/span&gt;&lt;span style=&quot;color:#7a7e85;&quot;&gt;    &lt;/span&gt;ProductRepository &lt;span style=&quot;color:#c77dbb;&quot;&gt;productRepository &lt;/span&gt;= &lt;span style=&quot;color:#cf8e6d;&quot;&gt;new &lt;/span&gt;ProductRepositoryCollectionImpl();&lt;br&gt;    &lt;span style=&quot;color:#cf8e6d;&quot;&gt;public boolean &lt;/span&gt;&lt;span style=&quot;color:#56a8f5;&quot;&gt;addProduct&lt;/span&gt;(Product product) {&lt;br&gt;        &lt;span style=&quot;color:#cf8e6d;&quot;&gt;boolean &lt;/span&gt;isAdded = &lt;span style=&quot;color:#cf8e6d;&quot;&gt;false&lt;/span&gt;;&lt;br&gt;        &lt;span style=&quot;color:#cf8e6d;&quot;&gt;if &lt;/span&gt;(product.getPrice() &amp;lt; &lt;span style=&quot;color:#2aacb8;&quot;&gt;0&lt;/span&gt;) {&lt;br&gt;            System.&lt;span style=&quot;color:#c77dbb;font-style:italic;&quot;&gt;out&lt;/span&gt;.println(&lt;span style=&quot;color:#6aab73;&quot;&gt;&quot;Price cannot be negative&quot;&lt;/span&gt;);&lt;br&gt;        } &lt;span style=&quot;color:#cf8e6d;&quot;&gt;else &lt;/span&gt;{&lt;br&gt;            isAdded =  &lt;span style=&quot;color:#c77dbb;&quot;&gt;productRepository&lt;/span&gt;.addProductToCart(product);&lt;br&gt;        }&lt;br&gt;        &lt;span style=&quot;color:#cf8e6d;&quot;&gt;return &lt;/span&gt;isAdded;&lt;br&gt;    }&lt;br&gt;    &lt;span style=&quot;color:#7a7e85;&quot;&gt;// get all products&lt;br&gt;&lt;/span&gt;&lt;span style=&quot;color:#7a7e85;&quot;&gt;    &lt;/span&gt;&lt;span style=&quot;color:#cf8e6d;&quot;&gt;public &lt;/span&gt;List&amp;lt;Product&amp;gt; &lt;span style=&quot;color:#56a8f5;&quot;&gt;getAllProducts&lt;/span&gt;() {&lt;br&gt;       &lt;span style=&quot;color:#cf8e6d;&quot;&gt;return &lt;/span&gt;&lt;span style=&quot;color:#c77dbb;&quot;&gt;productRepository&lt;/span&gt;.getAllProducts();&lt;br&gt;    }&lt;br&gt;}&lt;/pre&gt;&lt;/div&gt;" style="text;whiteSpace=wrap;html=1;fillColor=#6a00ff;fontColor=#ffffff;strokeColor=#3700CC;" vertex="1" parent="1">
          <mxGeometry x="550" y="340" width="560" height="350" as="geometry" />
        </mxCell>
        <mxCell id="TeoRIYG-eI9M2ClnVOOX-9" style="edgeStyle=orthogonalEdgeStyle;rounded=0;orthogonalLoop=1;jettySize=auto;html=1;entryX=0.434;entryY=-0.01;entryDx=0;entryDy=0;entryPerimeter=0;" edge="1" parent="1" source="TeoRIYG-eI9M2ClnVOOX-2" target="TeoRIYG-eI9M2ClnVOOX-6">
          <mxGeometry relative="1" as="geometry" />
        </mxCell>
        <mxCell id="TeoRIYG-eI9M2ClnVOOX-10" style="edgeStyle=orthogonalEdgeStyle;rounded=0;orthogonalLoop=1;jettySize=auto;html=1;entryX=0.171;entryY=-0.011;entryDx=0;entryDy=0;entryPerimeter=0;" edge="1" parent="1" source="TeoRIYG-eI9M2ClnVOOX-6" target="TeoRIYG-eI9M2ClnVOOX-8">
          <mxGeometry relative="1" as="geometry" />
        </mxCell>
        <mxCell id="TeoRIYG-eI9M2ClnVOOX-12" value="public interface ProductRepository {&#xa;    boolean addProductToCart(Product product);&#xa;    List getAllProducts();&#xa;&#xa;}" style="text;whiteSpace=wrap;html=1;fillColor=#e3c800;fontColor=#000000;strokeColor=#B09500;" vertex="1" parent="1">
          <mxGeometry x="1170" y="450" width="270" height="100" as="geometry" />
        </mxCell>
        <UserObject label="public class ProductRepositoryCollectionImpl implements ProductRepository{&#xa;    //What is a repository?&#xa;    //A repository is a class that provides CRUD operations on the model.&#xa;    Map cart = new HashMap();&#xa;    public boolean addProductToCart(Product product) {&#xa;        cart.put(product.getId(), product);&#xa;//        System.out.println(&quot;Product added to cart &quot; );&#xa;        System.out.println(&quot;Updated cart is &quot; + cart);&#xa;        return true;&#xa;    }&#xa;&#xa;    @Override&#xa;    public List getAllProducts() {&#xa;       throw new UnsupportedOperationException(&quot;Not implemented yet&quot;);&#xa;    }&#xa;}" link="public class ProductRepositoryCollectionImpl implements ProductRepository{&#xa;    //What is a repository?&#xa;    //A repository is a class that provides CRUD operations on the model.&#xa;    Map cart = new HashMap();&#xa;    public boolean addProductToCart(Product product) {&#xa;        cart.put(product.getId(), product);&#xa;//        System.out.println(&quot;Product added to cart &quot; );&#xa;        System.out.println(&quot;Updated cart is &quot; + cart);&#xa;        return true;&#xa;    }&#xa;&#xa;    @Override&#xa;    public List getAllProducts() {&#xa;       throw new UnsupportedOperationException(&quot;Not implemented yet&quot;);&#xa;    }&#xa;}" id="TeoRIYG-eI9M2ClnVOOX-14">
          <mxCell style="text;whiteSpace=wrap;html=1;fillColor=#e3c800;fontColor=#000000;strokeColor=#B09500;" vertex="1" parent="1">
            <mxGeometry x="1180" y="160" width="440" height="250" as="geometry" />
          </mxCell>
        </UserObject>
        <mxCell id="TeoRIYG-eI9M2ClnVOOX-15" style="edgeStyle=orthogonalEdgeStyle;rounded=0;orthogonalLoop=1;jettySize=auto;html=1;entryX=0.284;entryY=1.011;entryDx=0;entryDy=0;entryPerimeter=0;" edge="1" parent="1" source="TeoRIYG-eI9M2ClnVOOX-12" target="TeoRIYG-eI9M2ClnVOOX-14">
          <mxGeometry relative="1" as="geometry" />
        </mxCell>
      </root>
    </mxGraphModel>
  </diagram>
</mxfile>
